<svg width="44" height="44" viewBox="0 0 44 44" fill="none" xmlns="http://www.w3.org/2000/svg">
<rect x="2" y="2" width="40" height="40" rx="20" fill="url(#paint0_linear_1_4134)"/>
<rect x="2" y="2" width="40" height="40" rx="20" stroke="#F0F3F3" stroke-width="4"/>
<path d="M17.2362 31.091H26.7634C29.2725 31.091 30.2725 29.5546 30.3907 27.6819L30.8634 20.1728C30.9907 18.2092 29.4271 16.5455 27.4543 16.5455C26.8998 16.5455 26.3907 16.2274 26.1362 15.7365L25.4816 14.4183C25.0634 13.591 23.9725 12.9092 23.0453 12.9092H20.9634C20.0271 12.9092 18.9362 13.591 18.518 14.4183L17.8634 15.7365C17.6089 16.2274 17.0998 16.5455 16.5453 16.5455C14.5725 16.5455 13.0089 18.2092 13.1362 20.1728L13.6089 27.6819C13.718 29.5546 14.7271 31.091 17.2362 31.091Z" stroke="#171717" stroke-width="1.36364" stroke-linecap="round" stroke-linejoin="round"/>
<path d="M20.6367 18.3638H23.364" stroke="#171717" stroke-width="1.36364" stroke-linecap="round" stroke-linejoin="round"/>
<path d="M21.9995 27.4545C23.6267 27.4545 24.954 26.1272 24.954 24.5C24.954 22.8727 23.6267 21.5454 21.9995 21.5454C20.3722 21.5454 19.0449 22.8727 19.0449 24.5C19.0449 26.1272 20.3722 27.4545 21.9995 27.4545Z" stroke="#171717" stroke-width="1.36364" stroke-linecap="round" stroke-linejoin="round"/>
<defs>
<linearGradient id="paint0_linear_1_4134" x1="-4.42857" y1="-6.21429" x2="57.8793" y2="4.92706" gradientUnits="userSpaceOnUse">
<stop stop-color="#FFF5DA"/>
<stop offset="0.240084" stop-color="#BEE3E0"/>
<stop offset="0.445277" stop-color="#8CD6E5"/>
<stop offset="0.571263" stop-color="#6BCDE8"/>
<stop offset="0.822909" stop-color="#80D2E8"/>
<stop offset="1" stop-color="#B5DDE8"/>
</linearGradient>
</defs>
</svg>
