<svg width="30" height="15" viewBox="0 0 30 15" fill="none" xmlns="http://www.w3.org/2000/svg">
<path d="M7.52 14.2C3.36 14.2 0.6 11.48 0.6 7.3C0.6 3.12 3.36 0.4 7.52 0.4C11.3 0.4 13.94 2.4 13.94 5.6V5.88H11.56V5.6C11.56 3.56 10.26 2.46 7.54 2.46C4.4 2.46 2.88 3.96 2.88 7.3C2.88 10.64 4.4 12.12 7.54 12.12C10.26 12.12 11.56 11.04 11.56 8.98V8.72H13.94V8.98C13.94 12.2 11.32 14.2 7.52 14.2ZM23.0513 14.2C18.8913 14.2 16.1313 11.48 16.1313 7.3C16.1313 3.12 18.8913 0.4 23.0513 0.4C26.8312 0.4 29.4713 2.4 29.4713 5.6V5.88H27.0913V5.6C27.0913 3.56 25.7913 2.46 23.0713 2.46C19.9313 2.46 18.4113 3.96 18.4113 7.3C18.4113 10.64 19.9313 12.12 23.0713 12.12C25.7913 12.12 27.0913 11.04 27.0913 8.98V8.72H29.4713V8.98C29.4713 12.2 26.8513 14.2 23.0513 14.2Z" fill="#E0B23A"/>
</svg>
