<svg width="32" height="32" viewBox="0 0 32 32" fill="none" xmlns="http://www.w3.org/2000/svg">
<path d="M32 0V32H0V0H32Z" fill="white" fill-opacity="0.01"/>
<path d="M20.8984 19.9393L22.0484 23.9044L25.0621 27.1499C25.4697 26.915 25.8166 26.5741 26.0606 26.1514L28.8606 21.3029C29.1045 20.8817 29.2257 20.4105 29.2257 19.9393L24.9257 19.106L20.8984 19.9393Z" fill="#EA4335"/>
<path d="M20.1636 4.24406C19.7561 4.00921 19.2879 3.87891 18.8 3.87891H13.2015C12.7167 3.87891 12.244 4.01224 11.8379 4.24406L13.044 8.30618L15.9894 11.4335L16 11.4547L18.9667 8.28951L20.1636 4.24406Z" fill="#188038"/>
<path d="M11.1015 19.9394L6.80909 18.9546L2.77576 19.9394C2.77576 20.4091 2.89697 20.8788 3.13939 21.3016L5.93939 26.1516C6.18333 26.5728 6.5303 26.9137 6.93788 27.15L9.90606 24.0925L11.1015 19.9394Z" fill="#1967D2"/>
<path d="M25.0106 11.9088L21.1621 5.24214C20.9182 4.81941 20.5712 4.4785 20.1636 4.24365L16 11.4543L20.8985 19.9391H29.2242C29.2242 19.4679 29.103 18.9982 28.8591 18.5755L25.0106 11.9088Z" fill="#FBBC04"/>
<path d="M20.8985 19.9395H11.1015L6.93787 27.1501C7.34544 27.3849 7.81362 27.5152 8.3015 27.5152H23.697C24.1848 27.5152 24.653 27.3849 25.0606 27.1501L20.8985 19.9395Z" fill="#4285F4"/>
<path d="M16 11.4543L11.8379 4.24365C11.4303 4.4785 11.0848 4.81789 10.8409 5.23911L3.13939 18.58C2.89697 19.0012 2.77576 19.4709 2.77576 19.9391H11.1015L16 11.4543Z" fill="#34A853"/>
</svg>
