<svg width="32" height="32" viewBox="0 0 32 32" fill="none" xmlns="http://www.w3.org/2000/svg">
<path d="M32 0V32H0V0H32Z" fill="white" fill-opacity="0.01"/>
<path fill-rule="evenodd" clip-rule="evenodd" d="M29.3333 15.9998C29.3333 22.8161 24.2177 28.4376 17.6155 29.2369L17.6155 29.2369C17.6158 29.2368 17.6161 29.2368 17.6163 29.2368V20.0738H21.2215L21.9682 15.9997H17.6104V14.559C17.6104 12.4042 18.4534 11.5775 20.64 11.5775C21.3171 11.5775 21.8667 11.5938 22.1815 11.6256V7.93454C21.5837 7.76935 20.1282 7.60417 19.2852 7.60417C14.8319 7.60417 12.7785 9.70565 12.7785 14.2442V15.9997H10.0267V20.0745H12.7785V28.9412C6.97074 27.5002 2.66663 22.2529 2.66663 15.9998C2.66663 8.63613 8.63626 2.6665 16 2.6665C23.3637 2.6665 29.3333 8.63613 29.3333 15.9998ZM12.7788 28.9412C12.7789 28.9412 12.7791 28.9413 12.7792 28.9413L12.7792 28.9412H12.7788Z" fill="#0866FF"/>
</svg>
