<svg width="65" height="64" viewBox="0 0 65 64" fill="none" xmlns="http://www.w3.org/2000/svg">
<path d="M24.5 58.6663H40.5C53.8334 58.6663 59.1667 53.333 59.1667 39.9997V23.9997C59.1667 10.6663 53.8334 5.33301 40.5 5.33301H24.5C11.1667 5.33301 5.83337 10.6663 5.83337 23.9997V39.9997C5.83337 53.333 11.1667 58.6663 24.5 58.6663Z" stroke="#C9D0D6" stroke-width="4" stroke-linecap="round" stroke-linejoin="round"/>
<path d="M24.5 26.6667C27.4455 26.6667 29.8333 24.2789 29.8333 21.3333C29.8333 18.3878 27.4455 16 24.5 16C21.5544 16 19.1666 18.3878 19.1666 21.3333C19.1666 24.2789 21.5544 26.6667 24.5 26.6667Z" stroke="#C9D0D6" stroke-width="4" stroke-linecap="round" stroke-linejoin="round"/>
<path d="M7.61975 50.5322L20.7664 41.7055C22.8731 40.2922 25.9131 40.4522 27.8064 42.0789L28.6864 42.8522C30.7664 44.6389 34.1264 44.6389 36.2064 42.8522L47.2997 33.3322C49.3797 31.5455 52.7398 31.5455 54.8198 33.3322L59.1664 37.0655" stroke="#C9D0D6" stroke-width="4" stroke-linecap="round" stroke-linejoin="round"/>
</svg>
