<svg width="135" height="58" viewBox="0 0 135 58" fill="none" xmlns="http://www.w3.org/2000/svg">
<g style="mix-blend-mode:multiply">
<path d="M6.15723 35.5582C6.15723 35.5582 18.1324 24.9339 26.1855 24.9339C34.2385 24.9339 37.6545 38.212 45.8994 38.0022C54.1443 37.7925 60.5775 30.6969 66.1275 29.9633C71.6774 29.2297 78.0263 23.7159 87.7834 24.9339C97.5405 26.1519 98.4924 1.94873 109.439 1.94879C120.386 1.94886 129.429 6.33371 129.429 6.33371" stroke="#EFA70D" stroke-width="1.61173" stroke-linecap="round"/>
</g>
<path fill-rule="evenodd" clip-rule="evenodd" d="M110.359 3.7613C111.398 3.7613 112.24 2.91929 112.24 1.88062C112.24 0.841949 111.398 -6.10352e-05 110.359 -6.10352e-05C109.32 -6.10352e-05 108.478 0.841949 108.478 1.88062C108.478 2.91929 109.32 3.7613 110.359 3.7613Z" fill="#EFA70D"/>
<path fill-rule="evenodd" clip-rule="evenodd" d="M110.359 3.13441C111.052 3.13441 111.613 2.57307 111.613 1.88062C111.613 1.18817 111.052 0.626833 110.359 0.626833C109.667 0.626833 109.105 1.18817 109.105 1.88062C109.105 2.57307 109.667 3.13441 110.359 3.13441Z" fill="#EFA70D"/>
<path d="M0 12.193H17.0217V57.9756H10C4.47716 57.9756 0 53.4984 0 47.9756V12.193Z" fill="url(#paint0_linear_452_7168)"/>
<rect width="14.6739" height="55.7609" transform="matrix(-1 0 0 1 135 2.21472)" fill="url(#paint1_linear_452_7168)"/>
<defs>
<linearGradient id="paint0_linear_452_7168" x1="17.0217" y1="12.193" x2="0" y2="12.193" gradientUnits="userSpaceOnUse">
<stop stop-color="white" stop-opacity="0.01"/>
<stop offset="0.633102" stop-color="white" stop-opacity="0.99"/>
<stop offset="1" stop-color="white"/>
</linearGradient>
<linearGradient id="paint1_linear_452_7168" x1="14.6739" y1="0" x2="0" y2="0" gradientUnits="userSpaceOnUse">
<stop stop-color="white" stop-opacity="0.01"/>
<stop offset="0.633102" stop-color="white" stop-opacity="0.99"/>
<stop offset="1" stop-color="white"/>
</linearGradient>
</defs>
</svg>
