<svg width="122" height="101" viewBox="0 0 122 101" fill="none" xmlns="http://www.w3.org/2000/svg">
<g filter="url(#filter0_d_83_3769)">
<path d="M64.8969 39.6132L57.2561 33.505C56.0764 32.5568 54.1689 32.5568 53.0002 33.494L45.3594 39.6132C44.4994 40.2968 43.9482 41.7412 44.1356 42.8217L45.602 51.5981C45.8666 53.1637 47.3661 54.4317 48.9538 54.4317H61.3025C62.8792 54.4317 64.3897 53.1527 64.6543 51.5981L66.1207 42.8217C66.2971 41.7412 65.7459 40.2968 64.8969 39.6132ZM55.1282 47.4745C53.6066 47.4745 52.3718 46.2396 52.3718 44.7181C52.3718 43.1966 53.6066 41.9617 55.1282 41.9617C56.6497 41.9617 57.8846 43.1966 57.8846 44.7181C57.8846 46.2396 56.6497 47.4745 55.1282 47.4745Z" fill="url(#paint0_linear_83_3769)"/>
</g>
<defs>
<filter id="filter0_d_83_3769" x="-10.8914" y="0.955944" width="132.035" height="131.62" filterUnits="userSpaceOnUse" color-interpolation-filters="sRGB">
<feFlood flood-opacity="0" result="BackgroundImageFix"/>
<feColorMatrix in="SourceAlpha" type="matrix" values="0 0 0 0 0 0 0 0 0 0 0 0 0 0 0 0 0 0 127 0" result="hardAlpha"/>
<feOffset dy="23.1538"/>
<feGaussianBlur stdDeviation="27.4952"/>
<feComposite in2="hardAlpha" operator="out"/>
<feColorMatrix type="matrix" values="0 0 0 0 0.156863 0 0 0 0 0.690196 0 0 0 0 0.894118 0 0 0 0.46 0"/>
<feBlend mode="normal" in2="BackgroundImageFix" result="effect1_dropShadow_83_3769"/>
<feBlend mode="normal" in="SourceGraphic" in2="effect1_dropShadow_83_3769" result="shape"/>
</filter>
<linearGradient id="paint0_linear_83_3769" x1="40.5545" y1="28.3487" x2="74.8677" y2="34.6021" gradientUnits="userSpaceOnUse">
<stop stop-color="#FFF5DA"/>
<stop offset="0.240084" stop-color="#BEE3E0"/>
<stop offset="0.445277" stop-color="#8CD6E5"/>
<stop offset="0.571263" stop-color="#6BCDE8"/>
<stop offset="0.822909" stop-color="#80D2E8"/>
<stop offset="1" stop-color="#B5DDE8"/>
</linearGradient>
</defs>
</svg>
