<svg width="32" height="32" viewBox="0 0 32 32" fill="none" xmlns="http://www.w3.org/2000/svg">
<path d="M32 0V32H0V0H32Z" fill="white" fill-opacity="0.01"/>
<rect x="2.66663" y="2.6665" width="26.6667" height="26.6667" rx="13.3333" fill="url(#paint0_radial_52_5272)"/>
<rect x="2.66663" y="2.6665" width="26.6667" height="26.6667" rx="13.3333" fill="url(#paint1_radial_52_5272)"/>
<path d="M21.25 12.375C21.25 12.9963 20.7463 13.5 20.125 13.5C19.5037 13.5 19 12.9963 19 12.375C19 11.7537 19.5037 11.25 20.125 11.25C20.7463 11.25 21.25 11.7537 21.25 12.375Z" fill="white"/>
<path fill-rule="evenodd" clip-rule="evenodd" d="M16 20.25C18.0711 20.25 19.75 18.5711 19.75 16.5C19.75 14.4289 18.0711 12.75 16 12.75C13.9289 12.75 12.25 14.4289 12.25 16.5C12.25 18.5711 13.9289 20.25 16 20.25ZM16 18.75C17.2426 18.75 18.25 17.7426 18.25 16.5C18.25 15.2574 17.2426 14.25 16 14.25C14.7574 14.25 13.75 15.2574 13.75 16.5C13.75 17.7426 14.7574 18.75 16 18.75Z" fill="white"/>
<path fill-rule="evenodd" clip-rule="evenodd" d="M8.5 16.2C8.5 13.6798 8.5 12.4196 8.99047 11.457C9.4219 10.6103 10.1103 9.9219 10.957 9.49047C11.9196 9 13.1798 9 15.7 9H16.3C18.8202 9 20.0804 9 21.043 9.49047C21.8897 9.9219 22.5781 10.6103 23.0095 11.457C23.5 12.4196 23.5 13.6798 23.5 16.2V16.8C23.5 19.3202 23.5 20.5804 23.0095 21.543C22.5781 22.3897 21.8897 23.0781 21.043 23.5095C20.0804 24 18.8202 24 16.3 24H15.7C13.1798 24 11.9196 24 10.957 23.5095C10.1103 23.0781 9.4219 22.3897 8.99047 21.543C8.5 20.5804 8.5 19.3202 8.5 16.8V16.2ZM15.7 10.5H16.3C17.5849 10.5 18.4583 10.5012 19.1334 10.5563C19.7911 10.6101 20.1274 10.7074 20.362 10.827C20.9265 11.1146 21.3854 11.5735 21.673 12.138C21.7926 12.3726 21.8899 12.7089 21.9437 13.3666C21.9988 14.0417 22 14.9151 22 16.2V16.8C22 18.0849 21.9988 18.9583 21.9437 19.6334C21.8899 20.2911 21.7926 20.6274 21.673 20.862C21.3854 21.4265 20.9265 21.8854 20.362 22.173C20.1274 22.2926 19.7911 22.3899 19.1334 22.4437C18.4583 22.4988 17.5849 22.5 16.3 22.5H15.7C14.4151 22.5 13.5417 22.4988 12.8666 22.4437C12.2089 22.3899 11.8726 22.2926 11.638 22.173C11.0735 21.8854 10.6146 21.4265 10.327 20.862C10.2074 20.6274 10.1101 20.2911 10.0563 19.6334C10.0012 18.9583 10 18.0849 10 16.8V16.2C10 14.9151 10.0012 14.0417 10.0563 13.3666C10.1101 12.7089 10.2074 12.3726 10.327 12.138C10.6146 11.5735 11.0735 11.1146 11.638 10.827C11.8726 10.7074 12.2089 10.6101 12.8666 10.5563C13.5417 10.5012 14.4151 10.5 15.7 10.5Z" fill="white"/>
<defs>
<radialGradient id="paint0_radial_52_5272" cx="0" cy="0" r="1" gradientUnits="userSpaceOnUse" gradientTransform="translate(9.74999 31.3871) rotate(-90) scale(26.4286 24.5807)">
<stop stop-color="#FFDD55"/>
<stop offset="0.1" stop-color="#FFDD55"/>
<stop offset="0.5" stop-color="#FF543E"/>
<stop offset="1" stop-color="#C837AB"/>
</radialGradient>
<radialGradient id="paint1_radial_52_5272" cx="0" cy="0" r="1" gradientUnits="userSpaceOnUse" gradientTransform="translate(-1.80018 4.58753) rotate(78.6806) scale(11.8137 48.6966)">
<stop stop-color="#3771C8"/>
<stop offset="0.128" stop-color="#3771C8"/>
<stop offset="1" stop-color="#6600FF" stop-opacity="0"/>
</radialGradient>
</defs>
</svg>
