<svg width="48" height="48" viewBox="0 0 48 48" fill="none" xmlns="http://www.w3.org/2000/svg">
<rect x="0.5" y="0.5" width="47" height="47" rx="11.5" stroke="url(#paint0_linear_1_3356)"/>
<path d="M24.0196 14.9102C20.7096 14.9102 18.0196 17.6002 18.0196 20.9102V23.8002C18.0196 24.4102 17.7596 25.3402 17.4496 25.8602L16.2996 27.7702C15.5896 28.9502 16.0796 30.2602 17.3796 30.7002C21.6896 32.1402 26.3396 32.1402 30.6496 30.7002C31.8596 30.3002 32.3896 28.8702 31.7296 27.7702L30.5796 25.8602C30.2796 25.3402 30.0196 24.4102 30.0196 23.8002V20.9102C30.0196 17.6102 27.3196 14.9102 24.0196 14.9102Z" stroke="#E0B23A" stroke-width="1.5" stroke-miterlimit="10" stroke-linecap="round"/>
<path d="M25.8699 15.2004C25.5599 15.1104 25.2399 15.0404 24.9099 15.0004C23.9499 14.8804 23.0299 14.9504 22.1699 15.2004C22.4599 14.4604 23.1799 13.9404 24.0199 13.9404C24.8599 13.9404 25.5799 14.4604 25.8699 15.2004Z" stroke="#E0B23A" stroke-width="1.5" stroke-miterlimit="10" stroke-linecap="round" stroke-linejoin="round"/>
<path d="M27.0195 31.0596C27.0195 32.7096 25.6695 34.0596 24.0195 34.0596C23.1995 34.0596 22.4395 33.7196 21.8995 33.1796C21.3595 32.6396 21.0195 31.8796 21.0195 31.0596" stroke="#E0B23A" stroke-width="1.5" stroke-miterlimit="10"/>
<defs>
<linearGradient id="paint0_linear_1_3356" x1="-7.71428" y1="-9.85715" x2="67.0552" y2="3.51248" gradientUnits="userSpaceOnUse">
<stop stop-color="#FFF5DA"/>
<stop offset="0.240084" stop-color="#BEE3E0"/>
<stop offset="0.445277" stop-color="#8CD6E5"/>
<stop offset="0.571263" stop-color="#6BCDE8"/>
<stop offset="0.822909" stop-color="#80D2E8"/>
<stop offset="1" stop-color="#B5DDE8"/>
</linearGradient>
</defs>
</svg>
