<svg width="706" height="845" viewBox="0 0 706 845" fill="none" xmlns="http://www.w3.org/2000/svg">
<rect x="1.80829" y="0.00012207" width="701.579" height="844.427" rx="43.3967" fill="url(#paint0_linear_1_1358)"/>
<mask id="mask0_1_1358" style="mask-type:alpha" maskUnits="userSpaceOnUse" x="0" y="0" width="706" height="845">
<rect width="705.196" height="844.427" rx="43.3967" fill="#E2ECF3"/>
</mask>
<g mask="url(#mask0_1_1358)">
<g filter="url(#filter0_f_1_1358)">
<circle cx="663.607" cy="68.7114" r="160.929" fill="#28B0E4"/>
</g>
<g filter="url(#filter1_f_1_1358)">
<circle cx="19.1241" cy="857.987" r="160.929" transform="rotate(150 19.1241 857.987)" fill="#28B0E4"/>
</g>
<g filter="url(#filter2_f_1_1358)">
<circle cx="575.91" cy="351.694" r="94.9302" fill="#E0B23A"/>
</g>
<g filter="url(#filter3_f_1_1358)">
<circle cx="-46.419" cy="569.068" r="94.9302" transform="rotate(150 -46.419 569.068)" fill="#E0B23A"/>
</g>
</g>
<mask id="mask1_1_1358" style="mask-type:alpha" maskUnits="userSpaceOnUse" x="0" y="0" width="706" height="845">
<rect width="705.196" height="844.427" rx="43.3967" fill="url(#paint1_linear_1_1358)"/>
</mask>
<g mask="url(#mask1_1_1358)">
<g opacity="0.1">
<path d="M34.8056 636.484L82.0436 718.303L0.225036 765.541L-47.0129 683.722L34.8056 636.484Z" fill="white" fill-opacity="0.01"/>
<path d="M51.5906 710.144L42.4984 715.394L34.2775 701.155C32.3171 697.759 29.7329 693.423 25.0647 696.119C20.3291 698.853 21.7404 702.971 23.9457 706.79L32.3088 721.276L23.2169 726.525L6.31138 697.244L15.0397 692.204L17.35 696.206L17.4723 696.135C17.4834 694.137 18.0363 692.18 19.0719 690.471C20.1076 688.763 21.5873 687.367 23.3534 686.433C32.5688 681.113 37.7675 686.193 42.3203 694.079L51.5906 710.144ZM-6.25865 699.165C-9.17244 700.847 -12.8989 699.85 -14.5818 696.936C-16.2647 694.022 -15.2671 690.296 -12.3533 688.613C-9.43964 686.93 -5.71317 687.927 -4.03025 690.841C-3.22206 692.24 -3.0028 693.903 -3.4207 695.464C-3.8386 697.025 -4.85943 698.356 -6.25865 699.165ZM17.5045 729.824L8.40271 735.079L-8.50346 705.797L0.598059 700.542L17.5041 729.824L17.5045 729.824ZM25.9387 655.246L-26.3508 685.436C-28.8382 686.835 -29.7219 689.984 -28.3253 692.473L1.99001 744.981C3.44677 747.436 6.61731 748.248 9.07466 746.795L61.3644 716.605C63.8597 715.206 64.7499 712.049 63.3539 709.552L33.0363 657.041C31.5715 654.585 28.394 653.78 25.9363 655.242" fill="#0A66C2"/>
</g>
<g opacity="0.1">
<path d="M691.284 121.882L658.003 194.031L585.854 160.751L619.135 88.6016L691.284 121.882Z" fill="white" fill-opacity="0.01"/>
<path d="M655.331 138.845C657.927 143.398 661.92 147.214 667.044 149.577L671.589 139.723C670.62 139.276 669.699 138.729 668.843 138.09L665.265 145.847C660.142 143.484 656.149 139.668 653.552 135.115L644.276 155.224C639.636 165.284 627.715 169.675 617.65 165.033C613.895 163.3 610.928 160.556 608.926 157.272C610.675 162.181 614.323 166.407 619.428 168.762C629.494 173.405 641.415 169.015 646.055 158.954L655.331 138.845L655.331 138.845ZM663.477 130.545C662.494 127.471 662.483 124.079 663.626 120.862L664.211 119.594L661.476 118.333C660.355 122.575 661.156 127.01 663.477 130.545ZM618.853 152.489C618.415 150.53 618.635 148.481 619.479 146.66C621.601 142.059 627.054 140.05 631.659 142.174C632.517 142.569 633.309 143.094 634.007 143.731L638.654 133.656C637.759 133.085 636.82 132.584 635.847 132.16L632.23 140.001C631.531 139.364 630.738 138.839 629.88 138.444C625.275 136.32 619.823 138.329 617.7 142.93C616.199 146.184 616.765 149.862 618.853 152.489Z" fill="#FF004F"/>
<path d="M653.552 135.114C656.149 139.668 660.141 143.483 665.265 145.846L668.843 138.09C666.264 136.162 664.421 133.5 663.476 130.545C661.155 127.01 660.354 122.574 661.476 118.333L654.293 115.02L636.138 154.379C634.005 158.96 628.565 160.957 623.971 158.837C621.264 157.589 619.453 155.189 618.852 152.488C616.765 149.861 616.199 146.184 617.699 142.93C619.822 138.329 625.274 136.32 629.879 138.444C630.761 138.851 631.548 139.38 632.229 140.001L635.846 132.16C625.864 127.803 614.187 132.21 609.606 142.141C607.319 147.098 607.226 152.506 608.926 157.272C610.928 160.555 613.894 163.301 617.65 165.033C627.714 169.676 639.635 165.284 644.276 155.224L653.552 135.115L653.552 135.114Z" fill="black"/>
<path d="M668.843 138.09L669.81 135.993C667.229 134.807 665.034 132.92 663.476 130.545C664.435 133.558 666.311 136.196 668.842 138.09L668.843 138.09ZM661.476 118.333C661.583 117.928 661.707 117.527 661.847 117.132L662.431 115.865L652.514 111.29L634.358 150.65C632.226 155.231 626.787 157.227 622.192 155.108C620.888 154.509 619.744 153.612 618.851 152.489C619.453 155.19 621.264 157.589 623.971 158.837C628.565 160.957 634.005 158.961 636.137 154.38L654.293 115.02L661.475 118.333L661.476 118.333ZM635.846 132.16L636.876 129.927C636.1 129.432 635.29 128.99 634.454 128.604C624.388 123.961 612.467 128.353 607.827 138.412C604.918 144.718 605.561 151.755 608.926 157.272C607.227 152.506 607.32 147.098 609.606 142.141C614.187 132.21 625.864 127.803 635.846 132.16Z" fill="#00F2EA"/>
</g>
<g opacity="0.1">
<path d="M102.328 79.5607L132.298 149.341L62.5172 179.311L32.5474 109.531L102.328 79.5607Z" fill="white" fill-opacity="0.01"/>
<path d="M82.4251 162.274C75.0348 165.449 67.2226 166.258 59.8313 165.039C64.8912 163.243 73.2516 158.749 76.4417 151.274C68.1522 154.392 61.8082 149.732 60.1857 147.273C60.9908 147.243 64.4224 146.147 65.9616 144.603C55.6032 146.274 50.644 138.684 49.8872 136.042C52.1669 136.515 55.3255 135.663 56.4486 135.055C45.0571 132.562 44.1638 121.837 44.8349 119.15C54.8091 125.128 66.2707 125.969 77.9811 121.26C77.3507 120.395 76.8066 119.446 76.3662 118.421C73.2062 111.064 76.5916 102.545 83.9277 99.394C87.7607 97.7477 91.9139 97.8927 95.457 99.4559C97.7606 97.7556 101.012 94.6949 102.375 92.6705C102.89 96.489 101.154 100.604 99.8183 102.427C99.8485 102.456 99.7882 102.397 99.8183 102.427C101.287 101.514 105.188 98.8713 106.378 97.0104C106.371 99.2831 104.604 103.815 102.797 106.704C112.343 127.611 104.1 152.966 82.4251 162.274Z" fill="#1D9BF0"/>
</g>
<g opacity="0.1">
<path d="M760.658 524.823L716.814 599.729L641.909 555.885L685.752 480.98L760.658 524.823Z" fill="white" fill-opacity="0.01"/>
<path fill-rule="evenodd" clip-rule="evenodd" d="M732.494 558.622C723.155 574.578 703.479 580.728 686.929 573.553L686.929 573.552C686.93 573.553 686.931 573.553 686.932 573.553L699.486 552.105L707.925 557.044L715.255 548.531L705.054 542.56L707.028 539.188C709.98 534.144 713.086 533.363 718.205 536.359C719.789 537.287 721.054 538.078 721.747 538.584L726.804 529.944C725.631 528.738 722.45 526.357 720.477 525.202C710.053 519.101 702.367 521.207 696.149 531.83L693.744 535.94L687.302 532.17L681.719 541.708L688.161 545.478L676.012 566.233L676.014 566.234L676.013 566.235C664.392 554.905 661.505 536.724 670.073 522.086C680.162 504.849 702.315 499.055 719.552 509.144C736.789 519.233 742.583 541.385 732.494 558.622Z" fill="#0FB4D9"/>
</g>
</g>
<g filter="url(#filter4_d_1_1358)">
<rect x="278.462" y="332.708" width="148.272" height="148.272" rx="74.136" fill="white"/>
</g>
<path d="M330.227 441.595L328.431 440.182C325.714 438.048 323.853 435.008 323.189 431.617C322.524 428.227 323.1 424.71 324.81 421.708L332.254 408.634L315.777 409.787C313.985 409.912 312.186 409.681 310.484 409.109C308.781 408.536 307.208 407.633 305.856 406.452C304.503 405.27 303.397 403.832 302.602 402.222C301.806 400.611 301.336 398.859 301.22 397.067L323.171 395.465C325.596 395.286 328.025 395.752 330.212 396.816C332.398 397.88 334.264 399.505 335.619 401.524L339.738 407.703C341.121 409.774 341.922 412.179 342.057 414.666C342.192 417.153 341.655 419.631 340.504 421.84L330.227 441.595Z" fill="#6BCDE8"/>
<path d="M378.054 440.05L379.702 438.481C382.216 436.106 383.792 432.906 384.142 429.465C384.493 426.025 383.596 422.573 381.613 419.739L373.004 407.406L389.526 407.04C391.323 407 393.093 406.606 394.737 405.88C396.38 405.154 397.864 404.11 399.103 402.808C400.341 401.507 401.311 399.973 401.955 398.296C402.599 396.619 402.905 394.83 402.856 393.034L380.851 393.446C378.417 393.492 376.038 394.182 373.957 395.446C371.876 396.71 370.167 398.503 369.005 400.642L365.462 407.175C364.275 409.364 363.697 411.832 363.791 414.321C363.884 416.809 364.645 419.227 365.994 421.321L378.054 440.05Z" fill="#0985C1"/>
<path d="M351.593 401.606C362.663 401.606 371.636 394.735 371.636 386.258C371.636 377.782 362.663 370.91 351.593 370.91C340.523 370.91 331.549 377.782 331.549 386.258C331.549 394.735 340.523 401.606 351.593 401.606Z" fill="#E0B23A"/>
<path d="M345.995 412.728L333.522 393.286C332.025 390.955 331.347 388.191 331.593 385.432C331.84 382.672 332.999 380.073 334.886 378.045L337.493 375.244L349.822 394.233C351.37 396.61 352.089 399.432 351.865 402.26C351.642 405.087 350.489 407.762 348.586 409.865L345.995 412.728Z" fill="#6BCDE8"/>
<path d="M359.786 412.765L370.529 392.318C371.816 389.868 372.252 387.059 371.768 384.334C371.284 381.609 369.908 379.123 367.855 377.266L365.017 374.7L354.369 394.686C353.032 397.193 352.562 400.071 353.032 402.873C353.502 405.674 354.886 408.241 356.968 410.174L359.786 412.765Z" fill="#0985C1"/>
<path d="M367.003 421.774C366.578 422.937 365.907 423.994 365.036 424.873C364.164 425.752 363.113 426.432 361.954 426.867C360.795 427.302 359.555 427.48 358.321 427.391C357.086 427.302 355.885 426.947 354.801 426.35C353.716 425.753 352.774 424.929 352.037 423.934C351.301 422.938 350.789 421.796 350.536 420.584C350.283 419.372 350.295 418.12 350.571 416.913C350.848 415.707 351.382 414.574 352.137 413.593C351.664 414.89 351.511 416.282 351.691 417.651C351.87 419.02 352.377 420.325 353.167 421.457C353.958 422.588 355.01 423.513 356.234 424.151C357.458 424.79 358.817 425.125 360.198 425.127C361.514 425.129 362.812 424.827 363.992 424.245C365.172 423.664 366.202 422.818 367.003 421.774Z" fill="#28B0E4"/>
<path d="M360.939 419.273C360.708 420.758 360.098 422.159 359.169 423.341C358.24 424.522 357.022 425.445 355.634 426.02C354.372 426.545 353.004 426.764 351.642 426.658C350.279 426.552 348.962 426.125 347.796 425.411C346.631 424.698 345.651 423.719 344.937 422.554C344.223 421.389 343.795 420.071 343.688 418.709C343.568 420.187 343.83 421.672 344.449 423.02C345.068 424.368 346.023 425.534 347.222 426.406C348.422 427.278 349.825 427.828 351.299 428.001C352.772 428.174 354.264 427.966 355.634 427.396C357.219 426.716 358.568 425.582 359.512 424.138C360.456 422.694 360.953 421.003 360.939 419.277V419.273Z" fill="#E0B23A"/>
<path d="M360.292 414.676C360.091 415.973 359.56 417.197 358.75 418.23C357.94 419.262 356.878 420.07 355.667 420.575C354.563 421.033 353.366 421.223 352.175 421.13C350.984 421.038 349.831 420.665 348.811 420.042C347.792 419.419 346.934 418.564 346.307 417.546C345.681 416.528 345.304 415.377 345.208 414.186C345.107 415.479 345.339 416.776 345.883 417.953C346.426 419.13 347.263 420.148 348.312 420.91C349.361 421.671 350.588 422.151 351.876 422.303C353.164 422.455 354.469 422.274 355.667 421.778C357.052 421.182 358.23 420.191 359.054 418.928C359.879 417.666 360.312 416.188 360.301 414.68L360.292 414.676Z" fill="#E0B23A"/>
<path d="M359.374 427.837C358.538 428.749 357.515 429.469 356.374 429.949C355.234 430.429 354.003 430.656 352.766 430.616C351.53 430.576 350.316 430.268 349.21 429.715C348.103 429.162 347.129 428.377 346.354 427.412C345.579 426.447 345.022 425.327 344.721 424.127C344.419 422.926 344.381 421.675 344.608 420.459C344.835 419.243 345.323 418.09 346.037 417.08C346.752 416.07 347.676 415.226 348.747 414.606C348.07 415.352 347.528 416.209 347.144 417.139C346.457 418.797 346.306 420.629 346.714 422.376C347.122 424.124 348.067 425.7 349.417 426.882C350.767 428.064 352.454 428.793 354.24 428.967C356.026 429.14 357.822 428.749 359.374 427.849V427.837Z" fill="#6BCDE8"/>
<path d="M339.681 393.994C343.388 395.176 345.423 397.928 344.945 403.002C340.705 401.5 338.95 398.497 339.681 393.994Z" fill="#424242"/>
<path d="M341.527 398.816C341.859 398.66 341.965 398.187 341.765 397.759C341.564 397.33 341.133 397.109 340.801 397.264C340.469 397.419 340.363 397.893 340.564 398.321C340.764 398.75 341.196 398.971 341.527 398.816Z" fill="white"/>
<path d="M359.889 403.044C358.983 399.25 360.301 396.091 364.881 393.879C365.785 398.286 364.12 401.341 359.889 403.044Z" fill="#424242"/>
<path d="M363.151 400.043C363.414 399.65 363.381 399.166 363.076 398.962C362.772 398.758 362.312 398.912 362.049 399.305C361.786 399.699 361.819 400.182 362.123 400.386C362.428 400.59 362.888 400.436 363.151 400.043Z" fill="white"/>
<circle opacity="0.5" cx="352.598" cy="406.844" r="161.833" stroke="white" stroke-width="1.80819"/>
<circle opacity="0.5" cx="352.598" cy="406.844" r="264.9" stroke="white" stroke-width="1.80819"/>
<path d="M609.361 247.723V305.585H551.499V247.723H609.361Z" fill="white" fill-opacity="0.01"/>
<path fill-rule="evenodd" clip-rule="evenodd" d="M604.54 276.654C604.54 288.979 595.29 299.144 583.352 300.589L583.351 300.589C583.352 300.589 583.353 300.589 583.353 300.589V284.02H589.872L591.222 276.653H583.342V274.048C583.342 270.152 584.867 268.657 588.821 268.657C590.045 268.657 591.039 268.687 591.608 268.744V262.07C590.527 261.771 587.895 261.473 586.371 261.473C578.318 261.473 574.605 265.273 574.605 273.479V276.653H569.63V284.021H574.605V300.054H574.607L574.607 300.055C564.104 297.45 556.321 287.961 556.321 276.654C556.321 263.339 567.115 252.545 580.43 252.545C593.745 252.545 604.54 263.339 604.54 276.654Z" fill="#0866FF"/>
<path d="M381.527 643.717V701.58H323.665V643.717H381.527Z" fill="white" fill-opacity="0.01"/>
<path d="M342.724 695.638C336.596 695.638 330.884 693.856 326.076 690.781C330.158 691.045 337.362 690.412 341.843 686.138C335.102 685.829 332.062 680.659 331.666 678.45C332.239 678.67 334.97 678.936 336.512 678.317C328.758 676.373 327.569 669.568 327.833 667.491C329.287 668.507 331.754 668.861 332.723 668.772C325.498 663.603 328.097 655.826 329.375 654.146C334.56 661.33 342.331 665.365 351.945 665.589C351.764 664.794 351.668 663.967 351.668 663.116C351.668 657.015 356.6 652.07 362.683 652.07C365.861 652.07 368.725 653.42 370.735 655.579C372.859 655.082 376.056 653.917 377.618 652.909C376.831 655.737 374.379 658.096 372.895 658.971C372.908 659 372.883 658.941 372.895 658.971C374.198 658.774 377.724 658.096 379.116 657.151C378.428 658.74 375.828 661.381 373.694 662.86C374.091 680.367 360.697 695.638 342.724 695.638Z" fill="#1D9BF0"/>
<path d="M518.953 462.896V520.759H461.091V462.896H518.953Z" fill="white" fill-opacity="0.01"/>
<rect x="465.913" y="467.718" width="48.2185" height="48.2185" rx="24.1093" fill="url(#paint2_radial_1_1358)"/>
<rect x="465.913" y="467.718" width="48.2185" height="48.2185" rx="24.1093" fill="url(#paint3_radial_1_1358)"/>
<path d="M500.148 483.872C500.148 485.07 499.177 486.041 497.978 486.041C496.78 486.041 495.808 485.07 495.808 483.872C495.808 482.673 496.78 481.702 497.978 481.702C499.177 481.702 500.148 482.673 500.148 483.872Z" fill="white"/>
<path fill-rule="evenodd" clip-rule="evenodd" d="M490.022 499.06C494.017 499.06 497.255 495.822 497.255 491.828C497.255 487.833 494.017 484.595 490.022 484.595C486.028 484.595 482.789 487.833 482.789 491.828C482.789 495.822 486.028 499.06 490.022 499.06ZM490.022 496.167C492.419 496.167 494.362 494.224 494.362 491.828C494.362 489.431 492.419 487.488 490.022 487.488C487.625 487.488 485.683 489.431 485.683 491.828C485.683 494.224 487.625 496.167 490.022 496.167Z" fill="white"/>
<path fill-rule="evenodd" clip-rule="evenodd" d="M475.557 491.249C475.557 486.388 475.557 483.958 476.503 482.101C477.335 480.468 478.663 479.14 480.296 478.308C482.152 477.362 484.583 477.362 489.444 477.362H490.601C495.462 477.362 497.892 477.362 499.749 478.308C501.382 479.14 502.71 480.468 503.542 482.101C504.488 483.958 504.488 486.388 504.488 491.249V492.406C504.488 497.267 504.488 499.698 503.542 501.554C502.71 503.187 501.382 504.515 499.749 505.347C497.892 506.293 495.462 506.293 490.601 506.293H489.444C484.583 506.293 482.152 506.293 480.296 505.347C478.663 504.515 477.335 503.187 476.503 501.554C475.557 499.698 475.557 497.267 475.557 492.406V491.249ZM489.444 480.255H490.601C493.079 480.255 494.764 480.257 496.066 480.364C497.334 480.467 497.983 480.655 498.435 480.886C499.524 481.441 500.409 482.326 500.964 483.415C501.195 483.867 501.382 484.516 501.486 485.784C501.592 487.086 501.595 488.771 501.595 491.249V492.406C501.595 494.884 501.592 496.569 501.486 497.871C501.382 499.14 501.195 499.788 500.964 500.241C500.409 501.329 499.524 502.215 498.435 502.769C497.983 503 497.334 503.188 496.066 503.291C494.764 503.398 493.079 503.4 490.601 503.4H489.444C486.965 503.4 485.281 503.398 483.979 503.291C482.71 503.188 482.062 503 481.609 502.769C480.52 502.215 479.635 501.329 479.08 500.241C478.85 499.788 478.662 499.14 478.558 497.871C478.452 496.569 478.45 494.884 478.45 492.406V491.249C478.45 488.771 478.452 487.086 478.558 485.784C478.662 484.516 478.85 483.867 479.08 483.415C479.635 482.326 480.52 481.441 481.609 480.886C482.062 480.655 482.71 480.467 483.979 480.364C485.281 480.257 486.965 480.255 489.444 480.255Z" fill="white"/>
<path d="M151.888 247.723V305.585H94.0261V247.723H151.888Z" fill="white" fill-opacity="0.01"/>
<path d="M138.234 291.932H131.804V281.862C131.804 279.461 131.761 276.37 128.46 276.37C125.111 276.37 124.599 278.986 124.599 281.688V291.931H118.169V271.224H124.341V274.054H124.428C125.046 272.998 125.938 272.129 127.011 271.539C128.083 270.95 129.296 270.663 130.518 270.709C137.035 270.709 138.237 274.995 138.237 280.572L138.234 291.932ZM110.913 268.393C108.853 268.394 107.182 266.723 107.181 264.662C107.181 262.602 108.851 260.931 110.912 260.93C112.973 260.93 114.644 262.6 114.644 264.661C114.644 265.651 114.251 266.6 113.552 267.3C112.852 268 111.903 268.393 110.913 268.393ZM114.128 291.932H107.692V271.224H114.128V291.932L114.128 291.932ZM141.44 254.959H104.461C102.713 254.939 101.28 256.339 101.258 258.087V295.22C101.279 296.969 102.712 298.37 104.461 298.352H141.44C143.192 298.374 144.631 296.972 144.655 295.22V258.084C144.63 256.333 143.191 254.933 141.44 254.956" fill="#0A66C2"/>
<path d="M381.529 215.175V273.038H323.667V215.175H381.529Z" fill="white" fill-opacity="0.01"/>
<path d="M343.658 266.443C343.356 263.714 343.577 261.085 344.16 258.556L346.571 248.181C346.135 246.839 345.905 245.438 345.888 244.027C345.888 240.656 347.495 238.248 350.067 238.248C351.835 238.248 353.141 239.492 353.141 241.86C353.141 242.622 352.993 243.479 352.699 244.429L351.634 247.9C351.433 248.569 351.332 249.178 351.332 249.727C351.332 252.135 353.181 253.499 355.531 253.499C359.71 253.499 362.704 249.165 362.704 243.546C362.704 237.284 358.605 233.291 352.538 233.291C345.787 233.291 341.508 237.686 341.508 243.786C341.508 246.255 342.271 248.543 343.738 250.108C343.256 250.911 342.733 251.071 341.97 251.071C339.559 251.071 337.269 247.66 337.269 243.044C337.269 235.037 343.698 228.675 352.699 228.675C362.141 228.675 368.088 235.258 368.088 243.385C368.088 251.553 362.302 257.693 356.074 257.693C354.887 257.715 353.711 257.459 352.641 256.947C351.57 256.435 350.634 255.68 349.906 254.743L348.68 259.76C348.017 262.329 347.013 264.777 345.426 267.125C349.037 268.249 352.862 268.509 356.592 267.883C360.322 267.257 363.852 265.763 366.898 263.523C369.943 261.282 372.417 258.357 374.122 254.984C375.826 251.611 376.712 247.885 376.707 244.108C376.713 239.732 375.524 235.438 373.27 231.687C371.017 227.935 367.782 224.868 363.914 222.815C360.046 220.761 355.692 219.799 351.318 220.031C346.944 220.264 342.716 221.682 339.088 224.134C335.46 226.585 332.569 229.978 330.726 233.947C328.884 237.916 328.158 242.312 328.628 246.662C329.098 251.012 330.745 255.151 333.393 258.637C336.041 262.122 339.59 264.821 343.658 266.443Z" fill="#E60023"/>
<path d="M244.105 464.706V522.568H186.242V464.706H244.105Z" fill="white" fill-opacity="0.01"/>
<path d="M225.503 486.89C228.609 489.109 232.413 490.414 236.523 490.414V482.511C235.745 482.511 234.969 482.43 234.208 482.269V488.49C230.1 488.49 226.296 487.184 223.189 484.966V501.093C223.189 509.161 216.646 515.701 208.574 515.701C205.562 515.701 202.763 514.791 200.438 513.23C203.092 515.943 206.793 517.625 210.888 517.625C218.96 517.625 225.504 511.085 225.504 503.017V486.89H225.503ZM228.358 478.917C226.771 477.184 225.729 474.944 225.503 472.468V471.451H223.31C223.862 474.598 225.745 477.287 228.358 478.917ZM205.543 507.039C204.656 505.877 204.177 504.456 204.179 502.994C204.179 499.304 207.172 496.312 210.865 496.312C211.553 496.312 212.237 496.417 212.893 496.625V488.546C212.126 488.441 211.353 488.396 210.58 488.413V494.701C209.923 494.493 209.239 494.388 208.551 494.388C204.858 494.388 201.865 497.38 201.865 501.07C201.865 503.68 203.361 505.939 205.543 507.039Z" fill="#FF004F"/>
<path d="M223.19 484.966C226.296 487.184 230.1 488.49 234.209 488.49V482.269C231.915 481.781 229.885 480.583 228.358 478.917C225.745 477.287 223.863 474.598 223.311 471.451H217.551V503.017C217.538 506.697 214.55 509.676 210.865 509.676C208.694 509.676 206.765 508.642 205.543 507.039C203.362 505.939 201.866 503.68 201.866 501.07C201.866 497.38 204.858 494.388 208.551 494.388C209.258 494.388 209.94 494.499 210.58 494.701V488.413C202.65 488.576 196.273 495.052 196.273 503.017C196.273 506.993 197.861 510.597 200.438 513.231C202.764 514.791 205.563 515.701 208.575 515.701C216.646 515.701 223.19 509.161 223.19 501.093V484.966L223.19 484.966Z" fill="black"/>
<path d="M234.208 482.269V480.587C232.14 480.591 230.113 480.012 228.358 478.917C229.911 480.617 231.957 481.789 234.208 482.269V482.269ZM223.31 471.452C223.258 471.151 223.217 470.848 223.189 470.544V469.528H215.236V501.094C215.223 504.773 212.235 507.753 208.55 507.753C207.506 507.754 206.475 507.51 205.543 507.04C206.764 508.642 208.693 509.676 210.864 509.676C214.549 509.676 217.537 506.697 217.55 503.017V471.452H223.31V471.452ZM210.58 488.413V486.622C209.915 486.531 209.245 486.486 208.574 486.486C200.502 486.486 193.958 493.026 193.958 501.094C193.958 506.151 196.53 510.609 200.438 513.231C197.861 510.597 196.273 506.993 196.273 503.017C196.273 495.053 202.65 488.577 210.58 488.413Z" fill="#00F2EA"/>
<defs>
<filter id="filter0_f_1_1358" x="141.039" y="-453.857" width="1045.14" height="1045.14" filterUnits="userSpaceOnUse" color-interpolation-filters="sRGB">
<feFlood flood-opacity="0" result="BackgroundImageFix"/>
<feBlend mode="normal" in="SourceGraphic" in2="BackgroundImageFix" result="shape"/>
<feGaussianBlur stdDeviation="180.819" result="effect1_foregroundBlur_1_1358"/>
</filter>
<filter id="filter1_f_1_1358" x="-503.471" y="335.392" width="1045.19" height="1045.19" filterUnits="userSpaceOnUse" color-interpolation-filters="sRGB">
<feFlood flood-opacity="0" result="BackgroundImageFix"/>
<feBlend mode="normal" in="SourceGraphic" in2="BackgroundImageFix" result="shape"/>
<feGaussianBlur stdDeviation="180.819" result="effect1_foregroundBlur_1_1358"/>
</filter>
<filter id="filter2_f_1_1358" x="119.341" y="-104.875" width="913.138" height="913.138" filterUnits="userSpaceOnUse" color-interpolation-filters="sRGB">
<feFlood flood-opacity="0" result="BackgroundImageFix"/>
<feBlend mode="normal" in="SourceGraphic" in2="BackgroundImageFix" result="shape"/>
<feGaussianBlur stdDeviation="180.819" result="effect1_foregroundBlur_1_1358"/>
</filter>
<filter id="filter3_f_1_1358" x="-503.004" y="112.483" width="913.17" height="913.17" filterUnits="userSpaceOnUse" color-interpolation-filters="sRGB">
<feFlood flood-opacity="0" result="BackgroundImageFix"/>
<feBlend mode="normal" in="SourceGraphic" in2="BackgroundImageFix" result="shape"/>
<feGaussianBlur stdDeviation="180.819" result="effect1_foregroundBlur_1_1358"/>
</filter>
<filter id="filter4_d_1_1358" x="157.674" y="230.002" width="418.778" height="418.778" filterUnits="userSpaceOnUse" color-interpolation-filters="sRGB">
<feFlood flood-opacity="0" result="BackgroundImageFix"/>
<feColorMatrix in="SourceAlpha" type="matrix" values="0 0 0 0 0 0 0 0 0 0 0 0 0 0 0 0 0 0 127 0" result="hardAlpha"/>
<feOffset dx="14.4656" dy="32.5475"/>
<feGaussianBlur stdDeviation="67.6265"/>
<feComposite in2="hardAlpha" operator="out"/>
<feColorMatrix type="matrix" values="0 0 0 0 0.0351215 0 0 0 0 0.345601 0 0 0 0 0.495833 0 0 0 0.15 0"/>
<feBlend mode="normal" in2="BackgroundImageFix" result="effect1_dropShadow_1_1358"/>
<feBlend mode="normal" in="SourceGraphic" in2="effect1_dropShadow_1_1358" result="shape"/>
</filter>
<linearGradient id="paint0_linear_1_1358" x1="352.598" y1="0.00012207" x2="352.598" y2="844.427" gradientUnits="userSpaceOnUse">
<stop stop-color="#F7F3E8"/>
<stop offset="1" stop-color="#E6ECF2"/>
</linearGradient>
<linearGradient id="paint1_linear_1_1358" x1="352.598" y1="0" x2="352.598" y2="844.427" gradientUnits="userSpaceOnUse">
<stop stop-color="#F7F3E8"/>
<stop offset="1" stop-color="#E6ECF2"/>
</linearGradient>
<radialGradient id="paint2_radial_1_1358" cx="0" cy="0" r="1" gradientUnits="userSpaceOnUse" gradientTransform="translate(478.721 519.651) rotate(-90) scale(47.7881 44.4467)">
<stop stop-color="#FFDD55"/>
<stop offset="0.1" stop-color="#FFDD55"/>
<stop offset="0.5" stop-color="#FF543E"/>
<stop offset="1" stop-color="#C837AB"/>
</radialGradient>
<radialGradient id="paint3_radial_1_1358" cx="0" cy="0" r="1" gradientUnits="userSpaceOnUse" gradientTransform="translate(457.836 471.192) rotate(78.6806) scale(21.3615 88.0529)">
<stop stop-color="#3771C8"/>
<stop offset="0.128" stop-color="#3771C8"/>
<stop offset="1" stop-color="#6600FF" stop-opacity="0"/>
</radialGradient>
</defs>
</svg>
