<svg width="56" height="56" viewBox="0 0 56 56" fill="none" xmlns="http://www.w3.org/2000/svg">
<circle cx="28" cy="28" r="28" fill="#D9D9D9"/>
<circle cx="28" cy="28" r="28" fill="#D9D9D9"/>
<circle cx="28" cy="28" r="28" fill="white"/>
<path d="M20.9236 40L20.3092 39.5202C19.3796 38.7955 18.7432 37.7635 18.5158 36.6122C18.2885 35.4609 18.4853 34.2669 19.0705 33.2475L21.6169 28.8083L15.9801 29.1999C15.3671 29.2423 14.7517 29.1641 14.1692 28.9697C13.5867 28.7754 13.0487 28.4688 12.5859 28.0674C12.1232 27.6661 11.7449 27.1781 11.4727 26.6313C11.2005 26.0844 11.0399 25.4897 11 24.8811L18.5096 24.337C19.3393 24.2762 20.1703 24.4345 20.9184 24.7959C21.6664 25.1573 22.3046 25.7088 22.7682 26.3944L24.1774 28.4923C24.6506 29.1956 24.9246 30.0122 24.9707 30.8566C25.0168 31.7011 24.8333 32.5423 24.4395 33.2923L20.9236 40Z" fill="url(#paint0_linear_46_3608)"/>
<path d="M37.2857 39.4756L37.8494 38.9428C38.7093 38.1362 39.2485 37.0498 39.3685 35.8816C39.4885 34.7134 39.1814 33.5413 38.5033 32.5791L35.558 28.3917L41.2103 28.2672C41.8249 28.2538 42.4307 28.12 42.9929 27.8734C43.5552 27.6269 44.0628 27.2725 44.4865 26.8306C44.9103 26.3887 45.2419 25.868 45.4623 25.2985C45.6826 24.729 45.7874 24.1218 45.7705 23.512L38.2426 23.6519C37.4097 23.6673 36.5959 23.9015 35.8839 24.3307C35.172 24.7599 34.5874 25.3688 34.1897 26.0952L32.9778 28.3134C32.5715 29.0566 32.374 29.8945 32.406 30.7395C32.438 31.5844 32.6983 32.4053 33.1596 33.1162L37.2857 39.4756Z" fill="url(#paint1_linear_46_3608)"/>
<path d="M28.2329 26.4224C32.02 26.4224 35.0901 24.0892 35.0901 21.2112C35.0901 18.3331 32.02 16 28.2329 16C24.4458 16 21.3758 18.3331 21.3758 21.2112C21.3758 24.0892 24.4458 26.4224 28.2329 26.4224Z" fill="#28B0E4"/>
<path d="M26.3179 30.1986L22.0508 23.5972C21.5387 22.8057 21.3065 21.8674 21.3909 20.9305C21.4754 19.9935 21.8717 19.1111 22.5173 18.4224L23.4093 17.4713L27.627 23.9189C28.1568 24.7258 28.4026 25.684 28.3262 26.6441C28.2497 27.6043 27.8552 28.5123 27.2043 29.2266L26.3179 30.1986Z" fill="url(#paint2_linear_46_3608)"/>
<path d="M31.0359 30.2111L34.7111 23.2685C35.1515 22.4366 35.3007 21.4831 35.1351 20.5579C34.9695 19.6327 34.4986 18.7884 33.7965 18.158L32.8256 17.2867L29.1828 24.0727C28.7254 24.9237 28.5645 25.901 28.7254 26.8523C28.8862 27.8035 29.3597 28.6752 30.072 29.3314L31.0359 30.2111Z" fill="url(#paint3_linear_46_3608)"/>
<path d="M33.5047 33.27C33.3595 33.6648 33.1299 34.0237 32.8317 34.3222C32.5336 34.6207 32.1739 34.8516 31.7774 34.9992C31.3809 35.1468 30.9569 35.2076 30.5345 35.1773C30.1121 35.147 29.7013 35.0264 29.3303 34.8237C28.9593 34.6211 28.6368 34.3412 28.385 34.0033C28.1332 33.6654 27.958 33.2774 27.8714 32.866C27.7848 32.4545 27.7889 32.0294 27.8835 31.6197C27.978 31.21 28.1606 30.8254 28.4189 30.4923C28.2573 30.9328 28.2049 31.4053 28.2663 31.8701C28.3277 32.3349 28.501 32.7781 28.7716 33.1623C29.0421 33.5465 29.402 33.8603 29.8206 34.0772C30.2393 34.2942 30.7045 34.4078 31.1767 34.4084C31.6268 34.409 32.071 34.3066 32.4748 34.1091C32.8785 33.9117 33.231 33.6245 33.5047 33.27Z" fill="url(#paint4_linear_46_3608)"/>
<path d="M31.4306 32.4211C31.3514 32.9253 31.1428 33.4009 30.825 33.8021C30.5071 34.2033 30.0906 34.5166 29.6156 34.712C29.184 34.8901 28.716 34.9643 28.2499 34.9283C27.7838 34.8924 27.333 34.7474 26.9343 34.5052C26.5356 34.263 26.2004 33.9305 25.9561 33.5349C25.7118 33.1394 25.5654 32.692 25.5289 32.2295C25.4878 32.7314 25.5774 33.2354 25.7891 33.6931C26.0008 34.1507 26.3276 34.5467 26.7379 34.8429C27.1483 35.1391 27.6285 35.3256 28.1325 35.3844C28.6364 35.4433 29.1471 35.3726 29.6156 35.1791C30.158 34.9481 30.6196 34.5632 30.9425 34.0728C31.2654 33.5824 31.4352 33.0083 31.4306 32.4225V32.4211Z" fill="url(#paint5_linear_46_3608)"/>
<path d="M31.2093 30.8604C31.1403 31.3008 30.9586 31.7162 30.6815 32.0669C30.4044 32.4176 30.0413 32.6918 29.6268 32.8632C29.2492 33.0187 28.8399 33.0833 28.4323 33.0519C28.0248 33.0204 27.6304 32.8938 27.2816 32.6823C26.9327 32.4708 26.6392 32.1804 26.425 31.8348C26.2107 31.4893 26.0818 31.0984 26.0488 30.694C26.0143 31.1329 26.0938 31.5732 26.2797 31.9729C26.4656 32.3726 26.7517 32.7183 27.1107 32.9769C27.4697 33.2355 27.8895 33.3984 28.33 33.45C28.7705 33.5016 29.217 33.4402 29.6268 33.2716C30.1006 33.0693 30.5038 32.7328 30.7858 32.3041C31.0678 31.8754 31.2161 31.3737 31.2121 30.8618L31.2093 30.8604Z" fill="url(#paint6_linear_46_3608)"/>
<path d="M30.895 35.3285C30.609 35.6381 30.2589 35.8828 29.8687 36.0456C29.4785 36.2085 29.0575 36.2857 28.6344 36.272C28.2114 36.2583 27.7963 36.154 27.4176 35.9662C27.039 35.7785 26.7057 35.5117 26.4406 35.1842C26.1755 34.8566 25.9849 34.4761 25.8819 34.0686C25.7788 33.6612 25.7657 33.2364 25.8434 32.8235C25.9212 32.4105 26.088 32.0191 26.3323 31.6761C26.5767 31.3331 26.8929 31.0466 27.2593 30.8362C27.0279 31.0893 26.8424 31.3803 26.7111 31.6963C26.4759 32.2591 26.4244 32.8809 26.5639 33.4743C26.7034 34.0677 27.0268 34.6027 27.4886 35.0042C27.9505 35.4056 28.5276 35.6532 29.1386 35.7121C29.7497 35.771 30.3639 35.6383 30.895 35.3326V35.3285Z" fill="url(#paint7_linear_46_3608)"/>
<path d="M24.1576 23.8378C25.4258 24.2392 26.122 25.1734 25.9585 26.8965C24.508 26.3865 23.9077 25.3669 24.1576 23.8378Z" fill="#28B0E4"/>
<path d="M24.7898 25.4747C24.9032 25.4219 24.9396 25.2612 24.8709 25.1157C24.8023 24.9702 24.6547 24.895 24.5412 24.9478C24.4277 25.0005 24.3913 25.1612 24.46 25.3067C24.5286 25.4522 24.6763 25.5274 24.7898 25.4747Z" fill="url(#paint8_linear_46_3608)"/>
<path d="M31.0713 26.9104C30.7613 25.6223 31.2122 24.5496 32.7792 23.7985C33.0883 25.295 32.519 26.3323 31.0713 26.9104Z" fill="#28B0E4"/>
<path d="M32.1872 25.8913C32.2773 25.7578 32.2658 25.5935 32.1617 25.5243C32.0575 25.4552 31.9001 25.5073 31.8101 25.6409C31.7201 25.7744 31.7315 25.9387 31.8357 26.0079C31.9398 26.077 32.0972 26.0248 32.1872 25.8913Z" fill="url(#paint9_linear_46_3608)"/>
<defs>
<linearGradient id="paint0_linear_46_3608" x1="8.75359" y1="21.1052" x2="30.6656" y2="24.5989" gradientUnits="userSpaceOnUse">
<stop stop-color="#FFF5DA"/>
<stop offset="0.240084" stop-color="#BEE3E0"/>
<stop offset="0.445277" stop-color="#8CD6E5"/>
<stop offset="0.571263" stop-color="#6BCDE8"/>
<stop offset="0.822909" stop-color="#80D2E8"/>
<stop offset="1" stop-color="#B5DDE8"/>
</linearGradient>
<linearGradient id="paint1_linear_46_3608" x1="30.254" y1="20.2337" x2="51.2742" y2="23.3816" gradientUnits="userSpaceOnUse">
<stop stop-color="#FFF5DA"/>
<stop offset="0.240084" stop-color="#BEE3E0"/>
<stop offset="0.445277" stop-color="#8CD6E5"/>
<stop offset="0.571263" stop-color="#6BCDE8"/>
<stop offset="0.822909" stop-color="#80D2E8"/>
<stop offset="1" stop-color="#B5DDE8"/>
</linearGradient>
<linearGradient id="paint2_linear_46_3608" x1="20.2544" y1="14.8577" x2="31.3459" y2="15.9432" gradientUnits="userSpaceOnUse">
<stop stop-color="#FFF5DA"/>
<stop offset="0.240084" stop-color="#BEE3E0"/>
<stop offset="0.445277" stop-color="#8CD6E5"/>
<stop offset="0.571263" stop-color="#6BCDE8"/>
<stop offset="0.822909" stop-color="#80D2E8"/>
<stop offset="1" stop-color="#B5DDE8"/>
</linearGradient>
<linearGradient id="paint3_linear_46_3608" x1="27.6142" y1="14.6325" x2="38.0359" y2="15.5749" gradientUnits="userSpaceOnUse">
<stop stop-color="#FFF5DA"/>
<stop offset="0.240084" stop-color="#BEE3E0"/>
<stop offset="0.445277" stop-color="#8CD6E5"/>
<stop offset="0.571263" stop-color="#6BCDE8"/>
<stop offset="0.822909" stop-color="#80D2E8"/>
<stop offset="1" stop-color="#B5DDE8"/>
</linearGradient>
<linearGradient id="paint4_linear_46_3608" x1="26.8941" y1="29.5287" x2="35.6375" y2="31.4263" gradientUnits="userSpaceOnUse">
<stop stop-color="#FFF5DA"/>
<stop offset="0.240084" stop-color="#BEE3E0"/>
<stop offset="0.445277" stop-color="#8CD6E5"/>
<stop offset="0.571263" stop-color="#6BCDE8"/>
<stop offset="0.822909" stop-color="#80D2E8"/>
<stop offset="1" stop-color="#B5DDE8"/>
</linearGradient>
<linearGradient id="paint5_linear_46_3608" x1="24.5691" y1="31.5774" x2="33.1238" y2="34.4254" gradientUnits="userSpaceOnUse">
<stop stop-color="#FFF5DA"/>
<stop offset="0.240084" stop-color="#BEE3E0"/>
<stop offset="0.445277" stop-color="#8CD6E5"/>
<stop offset="0.571263" stop-color="#6BCDE8"/>
<stop offset="0.822909" stop-color="#80D2E8"/>
<stop offset="1" stop-color="#B5DDE8"/>
</linearGradient>
<linearGradient id="paint6_linear_46_3608" x1="25.2099" y1="30.1244" x2="32.6912" y2="32.6184" gradientUnits="userSpaceOnUse">
<stop stop-color="#FFF5DA"/>
<stop offset="0.240084" stop-color="#BEE3E0"/>
<stop offset="0.445277" stop-color="#8CD6E5"/>
<stop offset="0.571263" stop-color="#6BCDE8"/>
<stop offset="0.822909" stop-color="#80D2E8"/>
<stop offset="1" stop-color="#B5DDE8"/>
</linearGradient>
<linearGradient id="paint7_linear_46_3608" x1="24.9736" y1="29.7195" x2="32.9499" y2="31.0577" gradientUnits="userSpaceOnUse">
<stop stop-color="#FFF5DA"/>
<stop offset="0.240084" stop-color="#BEE3E0"/>
<stop offset="0.445277" stop-color="#8CD6E5"/>
<stop offset="0.571263" stop-color="#6BCDE8"/>
<stop offset="0.822909" stop-color="#80D2E8"/>
<stop offset="1" stop-color="#B5DDE8"/>
</linearGradient>
<linearGradient id="paint8_linear_46_3608" x1="24.2186" y1="24.9657" x2="24.9079" y2="24.7506" gradientUnits="userSpaceOnUse">
<stop stop-color="#FFF5DA"/>
<stop offset="0.240084" stop-color="#BEE3E0"/>
<stop offset="0.445277" stop-color="#8CD6E5"/>
<stop offset="0.571263" stop-color="#6BCDE8"/>
<stop offset="0.822909" stop-color="#80D2E8"/>
<stop offset="1" stop-color="#B5DDE8"/>
</linearGradient>
<linearGradient id="paint9_linear_46_3608" x1="31.5173" y1="25.9089" x2="32.1818" y2="25.2801" gradientUnits="userSpaceOnUse">
<stop stop-color="#FFF5DA"/>
<stop offset="0.240084" stop-color="#BEE3E0"/>
<stop offset="0.445277" stop-color="#8CD6E5"/>
<stop offset="0.571263" stop-color="#6BCDE8"/>
<stop offset="0.822909" stop-color="#80D2E8"/>
<stop offset="1" stop-color="#B5DDE8"/>
</linearGradient>
</defs>
</svg>
