<svg width="28" height="27" viewBox="0 0 28 27" fill="none" xmlns="http://www.w3.org/2000/svg">
<path d="M10.9328 12.3696C10.8226 12.3586 10.6903 12.3586 10.569 12.3696C7.94487 12.2814 5.86102 10.1314 5.86102 7.48523C5.86102 4.78395 8.0441 2.58984 10.7564 2.58984C13.4577 2.58984 15.6518 4.78395 15.6518 7.48523C15.6408 10.1314 13.5569 12.2814 10.9328 12.3696Z" stroke="#171717" stroke-width="1.65385" stroke-linecap="round" stroke-linejoin="round"/>
<path d="M18.9264 4.79492C21.0654 4.79492 22.7854 6.52595 22.7854 8.6539C22.7854 10.7377 21.1315 12.4357 19.0697 12.5129C18.9815 12.5018 18.8823 12.5018 18.7831 12.5129" stroke="#171717" stroke-width="1.65385" stroke-linecap="round" stroke-linejoin="round"/>
<path d="M5.41998 16.4381C2.75177 18.2242 2.75177 21.135 5.41998 22.9101C8.45203 24.9388 13.4246 24.9388 16.4566 22.9101C19.1248 21.124 19.1248 18.2132 16.4566 16.4381C13.4356 14.4204 8.46305 14.4204 5.41998 16.4381Z" stroke="#171717" stroke-width="1.65385" stroke-linecap="round" stroke-linejoin="round"/>
<path d="M21.0544 22.4362C21.8482 22.2708 22.598 21.9511 23.2154 21.477C24.9354 20.187 24.9354 18.059 23.2154 16.769C22.609 16.3059 21.8703 15.9972 21.0875 15.8208" stroke="#171717" stroke-width="1.65385" stroke-linecap="round" stroke-linejoin="round"/>
</svg>
