<svg width="31" height="28" viewBox="0 0 31 28" fill="none" xmlns="http://www.w3.org/2000/svg">
<path d="M22.4253 0C22.4866 0 22.5212 0.0220088 22.5275 0.0644544C22.7083 1.30953 23.04 2.45084 23.5257 3.4884C23.6861 3.83268 23.9376 4.17539 24.2803 4.51653C24.6215 4.85924 24.9642 5.11077 25.3069 5.27112C26.346 5.75531 27.4873 6.08859 28.7324 6.26937C28.7748 6.27566 28.7968 6.30867 28.7968 6.37156C28.7968 6.43287 28.7748 6.46745 28.7324 6.47374C27.4873 6.65296 26.346 6.98623 25.3084 7.472C24.9642 7.63235 24.6215 7.88388 24.2803 8.22502C23.9376 8.56772 23.6861 8.91043 23.5257 9.25314C23.04 10.2923 22.7083 11.4336 22.5275 12.6771C22.5212 12.7211 22.4882 12.7415 22.4253 12.7415C22.364 12.7415 22.3294 12.7211 22.3231 12.6771C22.1439 11.4336 21.8106 10.2923 21.3248 9.25314C21.1645 8.91043 20.913 8.56772 20.5718 8.22502C20.2291 7.88388 19.8864 7.63235 19.5437 7.472C18.5046 6.98623 17.3633 6.65453 16.1198 6.47374C16.0757 6.46745 16.0553 6.43287 16.0553 6.37156C16.0553 6.31025 16.0757 6.27566 16.1198 6.26937C17.3633 6.08859 18.5046 5.75688 19.5437 5.27112C19.8864 5.11077 20.2291 4.85924 20.5703 4.51653C20.913 4.17539 21.1645 3.83268 21.3248 3.4884C21.8106 2.45084 22.1423 1.30953 22.3231 0.0644544C22.3294 0.0220088 22.364 0 22.4253 0Z" fill="#E0B23A"/>
<path d="M14.5541 12.6161C16.4752 14.5387 19.4637 15.1173 22.1723 15.7021C22.328 15.7351 22.4066 15.8247 22.4066 15.9693C22.4066 16.1155 22.328 16.2051 22.1723 16.2381C19.4621 16.8214 16.4736 17.3983 14.5526 19.3178C12.6315 21.2389 12.053 24.2273 11.4682 26.936C11.4336 27.0916 11.344 27.1702 11.1994 27.1702C11.0547 27.1702 10.9651 27.0916 10.9305 26.936C10.3489 24.2258 9.77192 21.2373 7.85087 19.3162C5.92981 17.3952 2.9429 16.8167 0.232665 16.2318C0.0770309 16.1973 0 16.1077 0 15.963C0 15.8184 0.078603 15.7288 0.234237 15.6942C2.9429 15.1125 5.93138 14.5356 7.85244 12.6145C9.77507 10.6935 10.3536 7.70657 10.9384 4.99634C10.9714 4.8407 11.061 4.76367 11.2056 4.76367C11.3518 4.76367 11.4414 4.84228 11.4745 4.99791C12.0577 7.70657 12.6346 10.6951 14.5541 12.6161Z" fill="#E0B23A"/>
<path d="M27.7814 19.6851C28.3898 20.2935 29.4415 20.5325 30.2621 20.6677C30.3061 20.674 30.3297 20.6991 30.3297 20.74C30.3297 20.7824 30.3061 20.8076 30.2621 20.8154C29.4415 20.9506 28.3898 21.188 27.7798 21.798C27.1714 22.4064 26.9325 23.4581 26.7988 24.2787C26.791 24.3243 26.7658 24.3463 26.725 24.3463C26.6825 24.3463 26.6574 24.3243 26.6495 24.2787C26.5143 23.4581 26.2769 22.4064 25.667 21.798C25.0586 21.188 24.0069 20.9506 23.1863 20.8154C23.1407 20.8076 23.1187 20.784 23.1187 20.7431C23.1187 20.6991 23.1407 20.674 23.1863 20.6661C24.0069 20.5309 25.0586 20.2935 25.667 19.6836C26.2769 19.0752 26.5143 18.0235 26.6495 17.2029C26.6574 17.1588 26.6809 17.1353 26.7218 17.1353C26.7658 17.1353 26.791 17.1588 26.7988 17.2029C26.934 18.0235 27.1714 19.0752 27.7814 19.6851Z" fill="#E0B23A"/>
</svg>
