<svg width="40" height="24" viewBox="0 0 40 24" fill="none" xmlns="http://www.w3.org/2000/svg">
<path d="M20 7.3125C14.1841 7.3125 9.45312 12.0435 9.45312 17.8594C9.45312 19.7133 9.9418 21.5363 10.8653 23.134H29.1347C30.0582 21.5363 30.5469 19.7133 30.5469 17.8594C30.5469 12.0435 25.8159 7.3125 20 7.3125ZM20 4.96875C20.6477 4.96875 21.1719 4.44461 21.1719 3.79688V1.45312C21.1719 0.805391 20.6477 0.28125 20 0.28125C19.3523 0.28125 18.8281 0.805391 18.8281 1.45312V3.79688C18.8281 4.44461 19.3523 4.96875 20 4.96875ZM5.9375 16.6875H3.59375C2.94602 16.6875 2.42188 17.2116 2.42188 17.8594C2.42188 18.5071 2.94602 19.0312 3.59375 19.0312H5.9375C6.58523 19.0312 7.10938 18.5071 7.10938 17.8594C7.10938 17.2116 6.58523 16.6875 5.9375 16.6875ZM36.4062 16.6875H34.0625C33.4148 16.6875 32.8906 17.2116 32.8906 17.8594C32.8906 18.5071 33.4148 19.0312 34.0625 19.0312H36.4062C37.054 19.0312 37.5781 18.5071 37.5781 17.8594C37.5781 17.2116 37.054 16.6875 36.4062 16.6875ZM35.223 9.07031C34.898 8.50844 34.1781 8.315 33.622 8.64117L31.5929 9.81305C31.0321 10.137 30.8398 10.8533 31.1637 11.4141C31.4879 11.9753 32.2059 12.166 32.7648 11.8432L34.7938 10.6713C35.3545 10.3475 35.5468 9.63109 35.223 9.07031ZM26.4453 6.69563C27.003 7.01781 27.7216 6.82875 28.0463 6.26648L29.2182 4.23742C29.5421 3.67664 29.3498 2.96023 28.7891 2.63641C28.2295 2.31023 27.5119 2.50367 27.188 3.06555L26.0162 5.09461C25.6923 5.65539 25.8845 6.3718 26.4453 6.69563ZM11.9537 6.26648C12.2778 6.82773 12.9959 7.01844 13.5547 6.69563C14.1155 6.37172 14.3077 5.65539 13.9838 5.09461L12.812 3.06555C12.4858 2.50367 11.7694 2.31023 11.2109 2.63641C10.6502 2.96031 10.4579 3.67664 10.7818 4.23742L11.9537 6.26648ZM8.40711 9.81305L6.37805 8.64117C5.81727 8.315 5.10203 8.50844 4.77703 9.07031C4.45312 9.63109 4.64539 10.3475 5.20617 10.6713L7.23523 11.8432C7.79297 12.1654 8.51156 11.9763 8.83625 11.4141C9.16016 10.8533 8.96789 10.1369 8.40711 9.81305V9.81305Z" fill="url(#paint0_linear_884_918)"/>
<path d="M38.8281 21.375H1.17188C0.524141 21.375 0 21.8991 0 22.5468C0 23.1946 0.524141 23.7187 1.17188 23.7187H38.8281C39.4759 23.7187 40 23.1946 40 22.5468C40 21.8991 39.4759 21.375 38.8281 21.375Z" fill="url(#paint1_linear_884_918)"/>
<defs>
<linearGradient id="paint0_linear_884_918" x1="20" y1="23.134" x2="20" y2="0.28125" gradientUnits="userSpaceOnUse">
<stop stop-color="#FD5900"/>
<stop offset="1" stop-color="#FFDE00"/>
</linearGradient>
<linearGradient id="paint1_linear_884_918" x1="20" y1="23.7187" x2="20" y2="21.375" gradientUnits="userSpaceOnUse">
<stop stop-color="#FFE59A"/>
<stop offset="1" stop-color="#FFFFD5"/>
</linearGradient>
</defs>
</svg>
