<svg width="115" height="114" viewBox="0 0 115 114" fill="none" xmlns="http://www.w3.org/2000/svg">
<rect x="0.5" width="114" height="114" rx="57" fill="url(#paint0_linear_1_2501)" fill-opacity="0.2"/>
<path d="M41.7801 82.4694L40.4859 81.4512C38.5277 79.913 37.1871 77.7227 36.7082 75.2791C36.2293 72.8355 36.6439 70.3012 37.8766 68.1376L43.2406 58.7157L31.3668 59.5469C30.0754 59.6368 28.7791 59.4708 27.5521 59.0583C26.3251 58.6458 25.1917 57.995 24.2169 57.1432C23.2422 56.2915 22.4453 55.2556 21.872 54.095C21.2987 52.9344 20.9603 51.672 20.8762 50.3803L36.6952 49.2256C38.4428 49.0965 40.1935 49.4326 41.7692 50.1995C43.3448 50.9665 44.6893 52.1371 45.6658 53.5922L48.6343 58.0449C49.6311 59.5376 50.2082 61.2708 50.3053 63.0631C50.4025 64.8555 50.016 66.6409 49.1864 68.2326L41.7801 82.4694Z" fill="#6BCDE8"/>
<path d="M76.2468 81.3562L77.4342 80.2252C79.2456 78.5134 80.3813 76.2075 80.6342 73.7281C80.887 71.2486 80.2402 68.7609 78.8116 66.7187L72.6075 57.8312L84.514 57.567C85.8085 57.5385 87.0846 57.2544 88.269 56.7312C89.4534 56.2079 90.5226 55.4556 91.4153 54.5177C92.308 53.5798 93.0065 52.4747 93.4707 51.2659C93.9348 50.0571 94.1555 48.7685 94.12 47.4742L78.2624 47.771C76.508 47.8037 74.7937 48.3009 73.2939 49.2119C71.7942 50.1229 70.5628 51.4151 69.7251 52.9569L67.1723 57.6649C66.3164 59.2423 65.9004 61.0208 65.9677 62.8142C66.0351 64.6076 66.5834 66.3498 67.5552 67.8586L76.2468 81.3562Z" fill="#0985C1"/>
<path d="M57.1774 53.6516C65.1549 53.6516 71.622 48.6996 71.622 42.5911C71.622 36.4825 65.1549 31.5306 57.1774 31.5306C49.1999 31.5306 42.7329 36.4825 42.7329 42.5911C42.7329 48.6996 49.1999 53.6516 57.1774 53.6516Z" fill="#E0B23A"/>
<path d="M53.1434 61.6665L44.1549 47.6554C43.0759 45.9754 42.5869 43.9841 42.7648 41.9954C42.9427 40.0067 43.7774 38.1339 45.1374 36.6721L47.0165 34.6535L55.9011 48.3381C57.017 50.0508 57.5349 52.0846 57.3738 54.1224C57.2127 56.1602 56.3817 58.0874 55.0105 59.6034L53.1434 61.6665Z" fill="#6BCDE8"/>
<path d="M63.0819 61.693L70.8236 46.9576C71.7514 45.1921 72.0656 43.1682 71.7168 41.2045C71.3681 39.2408 70.3761 37.4489 68.8971 36.1108L66.8518 34.2615L59.1783 48.6645C58.2148 50.4707 57.876 52.5451 58.2148 54.564C58.5536 56.583 59.551 58.4331 61.0514 59.8259L63.0819 61.693Z" fill="#0985C1"/>
<path d="M68.2826 68.1852C67.9766 69.0231 67.493 69.785 66.8649 70.4185C66.2369 71.052 65.4793 71.5422 64.644 71.8555C63.8087 72.1687 62.9156 72.2976 62.0258 72.2333C61.1361 72.169 60.2707 71.9131 59.4892 71.483C58.7076 71.0529 58.0283 70.4589 57.4979 69.7416C56.9674 69.0244 56.5984 68.2009 56.416 67.3277C56.2337 66.4544 56.2423 65.5521 56.4414 64.6825C56.6405 63.8129 57.0253 62.9967 57.5694 62.2898C57.2289 63.2246 57.1186 64.2276 57.2479 65.214C57.3772 66.2005 57.7423 67.1412 58.3122 67.9566C58.8821 68.7721 59.6401 69.4382 60.5221 69.8986C61.404 70.359 62.3839 70.6001 63.3787 70.6015C64.3268 70.6027 65.2625 70.3853 66.113 69.9663C66.9634 69.5472 67.7059 68.9377 68.2826 68.1852Z" fill="#28B0E4"/>
<path d="M63.9129 66.3832C63.746 67.4535 63.3066 68.4628 62.6371 69.3144C61.9675 70.1659 61.0902 70.8309 60.0895 71.2455C59.1803 71.6237 58.1945 71.781 57.2127 71.7047C56.231 71.6284 55.2813 71.3207 54.4414 70.8066C53.6015 70.2925 52.8954 69.5868 52.3808 68.7473C51.8662 67.9077 51.5579 66.9582 51.481 65.9765C51.3943 67.0418 51.5831 68.1116 52.0291 69.083C52.4751 70.0543 53.1634 70.8947 54.0278 71.5233C54.8922 72.152 55.9038 72.5478 56.9653 72.6728C58.0269 72.7978 59.1027 72.6477 60.0895 72.237C61.2321 71.7466 62.2044 70.9297 62.8846 69.8889C63.5648 68.848 63.9225 67.6295 63.9129 66.3862V66.3832Z" fill="#E0B23A"/>
<path d="M63.4469 63.0705C63.3016 64.0052 62.9188 64.8869 62.3351 65.6312C61.7514 66.3755 60.9864 66.9575 60.1133 67.3214C59.3179 67.6513 58.4558 67.7885 57.5972 67.7218C56.7387 67.655 55.9081 67.3863 55.1732 66.9373C54.4383 66.4884 53.82 65.8721 53.3687 65.1387C52.9174 64.4053 52.6459 63.5756 52.5764 62.7173C52.5036 63.6488 52.6711 64.5835 53.0627 65.4318C53.4544 66.2802 54.0571 67.0139 54.8132 67.5627C55.5694 68.1116 56.4538 68.4573 57.3817 68.5668C58.3096 68.6763 59.2502 68.546 60.1133 68.1882C61.1115 67.7588 61.9608 67.0445 62.5548 66.1347C63.1488 65.2249 63.4612 64.16 63.4528 63.0735L63.4469 63.0705Z" fill="#E0B23A"/>
<path d="M62.785 72.5547C62.1825 73.212 61.445 73.7312 60.6231 74.0769C59.8011 74.4226 58.9142 74.5865 58.023 74.5574C57.1319 74.5283 56.2575 74.3069 55.4599 73.9084C54.6623 73.5098 53.9602 72.9436 53.4018 72.2485C52.8434 71.5533 52.4419 70.7456 52.2248 69.8808C52.0077 69.016 51.9801 68.1145 52.1438 67.238C52.3076 66.3615 52.659 65.5308 53.1737 64.8028C53.6885 64.0748 54.3546 63.4666 55.1264 63.02C54.6389 63.5573 54.2482 64.175 53.9716 64.8456C53.4762 66.0402 53.3677 67.36 53.6615 68.6194C53.9553 69.8788 54.6366 71.0144 55.6095 71.8664C56.5824 72.7184 57.798 73.2439 59.0851 73.369C60.3723 73.494 61.6663 73.2124 62.785 72.5636V72.5547Z" fill="#6BCDE8"/>
<path d="M47.2397 49.5106C49.9846 48.9369 52.2372 49.9411 53.7378 53.2939C51.5 50.9998 49.8269 50.0763 47.2397 49.5106Z" fill="#424242"/>
<path d="M63.156 54.6875C62.503 51.9536 63.4529 49.6768 66.7538 48.0827C67.4049 51.259 66.2056 53.4606 63.156 54.6875Z" fill="#424242"/>
<path d="M65.5072 52.5249C65.6968 52.2415 65.6727 51.8928 65.4534 51.746C65.234 51.5992 64.9024 51.7099 64.7128 51.9933C64.5231 52.2767 64.5472 52.6255 64.7666 52.7723C64.986 52.9191 65.3175 52.8083 65.5072 52.5249Z" fill="white"/>
<defs>
<linearGradient id="paint0_linear_1_2501" x1="-17.8214" y1="-23.4107" x2="159.756" y2="8.34213" gradientUnits="userSpaceOnUse">
<stop stop-color="#FFF5DA"/>
<stop offset="0.240084" stop-color="#BEE3E0"/>
<stop offset="0.445277" stop-color="#8CD6E5"/>
<stop offset="0.571263" stop-color="#6BCDE8"/>
<stop offset="0.822909" stop-color="#80D2E8"/>
<stop offset="1" stop-color="#B5DDE8"/>
</linearGradient>
</defs>
</svg>
