<svg width="32" height="32" viewBox="0 0 32 32" fill="none" xmlns="http://www.w3.org/2000/svg">
<path d="M32 0V32H0V0H32Z" fill="white" fill-opacity="0.01"/>
<path d="M21.7131 12.2684C23.4306 13.4955 25.5347 14.2175 27.8072 14.2175V9.84697C27.3771 9.84706 26.9481 9.80219 26.5274 9.71309V13.1534C24.2551 13.1534 22.1513 12.4314 20.4334 11.2044V20.1236C20.4334 24.5855 16.8144 28.2022 12.3506 28.2022C10.6851 28.2022 9.13693 27.6989 7.85095 26.8358C9.31872 28.3358 11.3656 29.2663 13.6301 29.2663C18.0943 29.2663 21.7133 25.6495 21.7133 21.1875V12.2684H21.7131ZM23.292 7.85902C22.4142 6.90058 21.8378 5.66196 21.7131 4.29258V3.73047H20.5003C20.8056 5.47088 21.847 6.95778 23.292 7.85902ZM10.6743 23.4119C10.1839 22.7693 9.91882 21.9831 9.92001 21.1747C9.92001 19.1341 11.5753 17.4794 13.6175 17.4794C13.998 17.4792 14.3763 17.5376 14.739 17.6526V13.1843C14.3151 13.1262 13.8874 13.1015 13.4598 13.1106V16.5885C13.0969 16.4735 12.7184 16.4151 12.3377 16.4154C10.2955 16.4154 8.64038 18.0699 8.64038 20.1108C8.64038 21.5539 9.46769 22.8033 10.6743 23.4119Z" fill="#FF004F"/>
<path d="M20.4329 11.2043C22.1509 12.4313 24.2546 13.1533 26.5269 13.1533V9.713C25.2585 9.44293 24.1357 8.78049 23.2914 7.85902C21.8464 6.95769 20.8052 5.47079 20.4999 3.73047H17.3143V21.1873C17.3071 23.2224 15.6546 24.8702 13.6169 24.8702C12.4161 24.8702 11.3493 24.2982 10.6737 23.4118C9.46724 22.8033 8.63984 21.5538 8.63984 20.1109C8.63984 18.0701 10.295 16.4155 12.3371 16.4155C12.7284 16.4155 13.1055 16.4764 13.4592 16.5886V13.1107C9.07377 13.2013 5.54688 16.7827 5.54688 21.1874C5.54688 23.3862 6.42513 25.3795 7.8506 26.8359C9.13658 27.6989 10.6846 28.2024 12.3503 28.2024C16.8142 28.2024 20.433 24.5854 20.433 20.1236V11.2044L20.4329 11.2043Z" fill="black"/>
<path d="M26.5267 9.71294V8.78292C25.3829 8.78465 24.2617 8.4645 23.2912 7.85906C24.1503 8.79902 25.2814 9.44722 26.5267 9.71313V9.71294ZM20.4996 3.73041C20.4705 3.56412 20.4482 3.39672 20.4327 3.22862V2.6665H16.0341V20.1235C16.0272 22.1585 14.3747 23.8063 12.3369 23.8063C11.7591 23.8071 11.1893 23.6721 10.6734 23.4121C11.349 24.2982 12.4158 24.8702 13.6166 24.8702C15.6543 24.8702 17.3069 23.2226 17.314 21.1874V3.7305H20.4996V3.73041ZM13.4592 13.1106V12.1204C13.0917 12.0701 12.7212 12.045 12.3502 12.0452C7.88582 12.0452 4.26697 15.6621 4.26697 20.1235C4.26697 22.9207 5.68922 25.3858 7.85051 26.8358C6.42504 25.3794 5.54678 23.386 5.54678 21.1873C5.54678 16.7827 9.07359 13.2012 13.4592 13.1106Z" fill="#00F2EA"/>
</svg>
