<svg width="32" height="32" viewBox="0 0 32 32" fill="none" xmlns="http://www.w3.org/2000/svg">
<path d="M32 0V32H0V0H32Z" fill="white" fill-opacity="0.01"/>
<path fill-rule="evenodd" clip-rule="evenodd" d="M27.8767 8.05649C28.2907 8.47049 28.589 8.98572 28.7419 9.55086C29.6225 13.0954 29.4191 18.6936 28.759 22.3749C28.6061 22.9401 28.3078 23.4553 27.8938 23.8693C27.4798 24.2833 26.9645 24.5816 26.3994 24.7346C24.3305 25.2988 16.0035 25.2988 16.0035 25.2988C16.0035 25.2988 7.67637 25.2988 5.6074 24.7346C5.04227 24.5816 4.52706 24.2833 4.11308 23.8693C3.6991 23.4553 3.40079 22.9401 3.24786 22.3749C2.3621 18.8458 2.60486 13.2442 3.23068 9.56805C3.38359 9.00288 3.68189 8.48764 4.09587 8.07362C4.50985 7.6596 5.02507 7.36126 5.59022 7.2083C7.65919 6.64403 15.9865 6.62695 15.9865 6.62695C15.9865 6.62695 24.3134 6.62695 26.3824 7.19122C26.9475 7.34417 27.4628 7.6425 27.8767 8.05649ZM20.2436 15.9627L13.3358 19.9638V11.9616L20.2436 15.9627Z" fill="#FF0000"/>
</svg>
