<svg width="22" height="24" viewBox="0 0 22 24" fill="none" xmlns="http://www.w3.org/2000/svg">
<path d="M8.90899 5.4541C8.7161 5.4541 8.53112 5.53072 8.39473 5.66711C8.25834 5.80351 8.18171 5.98849 8.18171 6.18137C8.18171 6.37426 8.25834 6.55924 8.39473 6.69563C8.53112 6.83202 8.7161 6.90865 8.90899 6.90865H13.2726C13.4655 6.90865 13.6505 6.83202 13.7869 6.69563C13.9233 6.55924 13.9999 6.37426 13.9999 6.18137C13.9999 5.98849 13.9233 5.80351 13.7869 5.66711C13.6505 5.53072 13.4655 5.4541 13.2726 5.4541H8.90899ZM7.45444 13.4541C7.45444 13.8399 7.30119 14.2098 7.02841 14.4826C6.75563 14.7554 6.38566 14.9086 5.99989 14.9086C5.61413 14.9086 5.24416 14.7554 4.97138 14.4826C4.6986 14.2098 4.54535 13.8399 4.54535 13.4541C4.54535 13.0683 4.6986 12.6984 4.97138 12.4256C5.24416 12.1528 5.61413 11.9996 5.99989 11.9996C6.38566 11.9996 6.75563 12.1528 7.02841 12.4256C7.30119 12.6984 7.45444 13.0683 7.45444 13.4541ZM7.45444 18.545C7.45444 18.9308 7.30119 19.3007 7.02841 19.5735C6.75563 19.8463 6.38566 19.9996 5.99989 19.9996C5.61413 19.9996 5.24416 19.8463 4.97138 19.5735C4.6986 19.3007 4.54535 18.9308 4.54535 18.545C4.54535 18.1592 4.6986 17.7893 4.97138 17.5165C5.24416 17.2437 5.61413 17.0905 5.99989 17.0905C6.38566 17.0905 6.75563 17.2437 7.02841 17.5165C7.30119 17.7893 7.45444 18.1592 7.45444 18.545ZM11.0908 14.9086C11.4766 14.9086 11.8465 14.7554 12.1193 14.4826C12.3921 14.2098 12.5453 13.8399 12.5453 13.4541C12.5453 13.0683 12.3921 12.6984 12.1193 12.4256C11.8465 12.1528 11.4766 11.9996 11.0908 11.9996C10.705 11.9996 10.3351 12.1528 10.0623 12.4256C9.78951 12.6984 9.63626 13.0683 9.63626 13.4541C9.63626 13.8399 9.78951 14.2098 10.0623 14.4826C10.3351 14.7554 10.705 14.9086 11.0908 14.9086ZM12.5453 18.545C12.5453 18.9308 12.3921 19.3007 12.1193 19.5735C11.8465 19.8463 11.4766 19.9996 11.0908 19.9996C10.705 19.9996 10.3351 19.8463 10.0623 19.5735C9.78951 19.3007 9.63626 18.9308 9.63626 18.545C9.63626 18.1592 9.78951 17.7893 10.0623 17.5165C10.3351 17.2437 10.705 17.0905 11.0908 17.0905C11.4766 17.0905 11.8465 17.2437 12.1193 17.5165C12.3921 17.7893 12.5453 18.1592 12.5453 18.545ZM16.1817 14.9086C16.5675 14.9086 16.9375 14.7554 17.2102 14.4826C17.483 14.2098 17.6363 13.8399 17.6363 13.4541C17.6363 13.0683 17.483 12.6984 17.2102 12.4256C16.9375 12.1528 16.5675 11.9996 16.1817 11.9996C15.7959 11.9996 15.426 12.1528 15.1532 12.4256C14.8804 12.6984 14.7272 13.0683 14.7272 13.4541C14.7272 13.8399 14.8804 14.2098 15.1532 14.4826C15.426 14.7554 15.7959 14.9086 16.1817 14.9086Z" fill="black"/>
<path fill-rule="evenodd" clip-rule="evenodd" d="M5.27273 0C5.46562 0 5.6506 0.0766233 5.78699 0.213013C5.92338 0.349404 6.00001 0.534388 6.00001 0.727273V2.18182H16.1818V0.727273C16.1818 0.534388 16.2584 0.349404 16.3948 0.213013C16.5312 0.0766233 16.7162 0 16.9091 0C17.102 0 17.287 0.0766233 17.4234 0.213013C17.5597 0.349404 17.6364 0.534388 17.6364 0.727273V2.18618C17.9922 2.18909 18.3093 2.2017 18.5876 2.224C19.1186 2.26764 19.584 2.35927 20.0146 2.57745C20.6986 2.92639 21.2546 3.48292 21.6029 4.16727C21.8225 4.59782 21.9142 5.06327 21.9578 5.59273C22 6.10909 22 6.74473 22 7.53309V18.6487C22 19.4371 22 20.0742 21.9578 20.5876C21.9142 21.1185 21.8225 21.584 21.6029 22.0145C21.2544 22.6984 20.6984 23.2543 20.0146 23.6029C19.584 23.8225 19.1186 23.9142 18.5891 23.9578C18.0727 24 17.4371 24 16.6502 24H5.5331C4.74473 24 4.10764 24 3.59419 23.9578C3.06328 23.9142 2.59782 23.8225 2.16728 23.6029C1.48292 23.2546 0.926398 22.6986 0.57746 22.0145C0.359278 21.584 0.267642 21.1185 0.224005 20.5891C0.181823 20.0727 0.181824 19.4356 0.181824 18.6473V7.53455C0.181824 6.84364 0.181824 6.272 0.210915 5.79345L0.224005 5.59564C0.267642 5.06473 0.359278 4.59927 0.57746 4.16873C0.926151 3.48415 1.4827 2.9276 2.16728 2.57891C2.59782 2.36073 3.06328 2.26909 3.59273 2.22545C3.87298 2.20315 4.19055 2.19055 4.54546 2.18764V0.727273C4.54546 0.534388 4.62208 0.349404 4.75847 0.213013C4.89486 0.0766233 5.07985 0 5.27273 0ZM4.54546 4.36364V3.64073C4.26736 3.64302 3.9894 3.65418 3.71201 3.67418C3.27273 3.70909 3.01964 3.776 2.82764 3.87345C2.41674 4.0827 2.0827 4.41674 1.87346 4.82764C1.77601 5.01964 1.7091 5.27273 1.67419 5.712C1.63637 6.16145 1.63637 6.73745 1.63637 7.56364V8.36364H20.5455V7.56364C20.5455 6.73745 20.5455 6.16145 20.5076 5.712C20.4727 5.27273 20.4058 5.01964 20.3084 4.82764C20.0991 4.41674 19.7651 4.0827 19.3542 3.87345C19.1622 3.776 18.9091 3.70909 18.4698 3.67418C18.1924 3.65418 17.9145 3.64302 17.6364 3.64073V4.36364C17.6364 4.55652 17.5597 4.74151 17.4234 4.8779C17.287 5.01429 17.102 5.09091 16.9091 5.09091C16.7162 5.09091 16.5312 5.01429 16.3948 4.8779C16.2584 4.74151 16.1818 4.55652 16.1818 4.36364V3.63636H6.00001V4.36364C6.00001 4.55652 5.92338 4.74151 5.78699 4.8779C5.6506 5.01429 5.46562 5.09091 5.27273 5.09091C5.07985 5.09091 4.89486 5.01429 4.75847 4.8779C4.62208 4.74151 4.54546 4.55652 4.54546 4.36364ZM20.5455 9.81818H1.63637V18.6182C1.63637 19.4444 1.63637 20.0218 1.67419 20.4698C1.7091 20.9091 1.77601 21.1622 1.87346 21.3542C2.0827 21.7651 2.41674 22.0991 2.82764 22.3084C3.01964 22.4058 3.27273 22.4727 3.71201 22.5076C4.16146 22.5455 4.73746 22.5455 5.56364 22.5455H16.6182C17.4444 22.5455 18.0218 22.5455 18.4698 22.5076C18.9091 22.4727 19.1622 22.4058 19.3542 22.3084C19.7651 22.0991 20.0991 21.7651 20.3084 21.3542C20.4058 21.1622 20.4727 20.9091 20.5076 20.4698C20.5455 20.0218 20.5455 19.4444 20.5455 18.6182V9.81818Z" fill="black"/>
</svg>
