<svg width="192" height="134" viewBox="0 0 192 134" fill="none" xmlns="http://www.w3.org/2000/svg">
<path d="M55.3321 133.3L51.9528 130.641C46.8401 126.625 43.3398 120.906 42.0894 114.526C40.8389 108.146 41.9215 101.529 45.14 95.88L59.1454 71.2797L28.143 73.4498C24.7714 73.6846 21.3866 73.251 18.183 72.174C14.9793 71.097 12.02 69.3978 9.47495 67.1739C6.92987 64.95 4.84916 62.2453 3.3523 59.215C1.85543 56.1848 0.971912 52.8887 0.752441 49.516L42.0553 46.501C46.6184 46.1641 51.1894 47.0415 55.3034 49.0441C59.4174 51.0466 62.9278 54.1029 65.4776 57.9022L73.2282 69.528C75.8306 73.4255 77.3376 77.951 77.5912 82.6307C77.8448 87.3103 76.8358 91.9721 74.6698 96.128L55.3321 133.3Z" fill="#6BCDE8"/>
<path d="M145.324 130.393L148.424 127.44C153.154 122.971 156.119 116.95 156.779 110.476C157.439 104.003 155.751 97.5074 152.021 92.1752L135.822 68.97L166.909 68.2802C170.289 68.2059 173.621 67.4643 176.714 66.098C179.806 64.7316 182.598 62.7676 184.929 60.3187C187.259 57.8698 189.083 54.9844 190.295 51.8283C191.507 48.6722 192.083 45.3077 191.99 41.9282L150.587 42.7033C146.006 42.7887 141.53 44.0868 137.614 46.4653C133.698 48.8439 130.483 52.2178 128.296 56.2435L121.631 68.536C119.396 72.6545 118.31 77.2982 118.486 81.9806C118.661 86.6631 120.093 91.2121 122.63 95.1515L145.324 130.393Z" fill="#0985C1"/>
<path d="M95.5344 58.0572C116.363 58.0572 133.249 45.1277 133.249 29.1785C133.249 13.2292 116.363 0.299805 95.5344 0.299805C74.7054 0.299805 57.8201 13.2292 57.8201 29.1785C57.8201 45.1277 74.7054 58.0572 95.5344 58.0572Z" fill="#E0B23A"/>
<path d="M85.0013 78.9839L61.5325 42.4012C58.7155 38.0148 57.4386 32.8155 57.9031 27.6231C58.3676 22.4308 60.5471 17.5407 64.098 13.724L69.0041 8.45361L92.2016 44.1838C95.1154 48.6555 96.4675 53.9658 96.0469 59.2864C95.6263 64.6071 93.4567 69.639 89.8764 73.5973L85.0013 78.9839Z" fill="#6BCDE8"/>
<path d="M110.95 79.0533L131.164 40.5794C133.586 35.9697 134.407 30.6853 133.496 25.5582C132.585 20.431 129.995 15.7523 126.134 12.2588L120.794 7.43018L100.758 45.036C98.2424 49.7521 97.3579 55.1682 98.2425 60.4397C99.1272 65.7111 101.731 70.5418 105.649 74.1782L110.95 79.0533Z" fill="#0985C1"/>
<path d="M124.529 96.004C123.73 98.1918 122.468 100.181 120.828 101.835C119.188 103.489 117.21 104.769 115.029 105.587C112.848 106.405 110.516 106.741 108.193 106.574C105.87 106.406 103.61 105.737 101.57 104.614C99.5292 103.492 97.7556 101.941 96.3706 100.068C94.9856 98.1952 94.022 96.0451 93.5459 93.7651C93.0698 91.4851 93.0924 89.1291 93.6122 86.8587C94.132 84.5882 95.1367 82.4571 96.5574 80.6113C95.6683 83.052 95.3804 85.6709 95.718 88.2464C96.0555 90.822 97.0087 93.2782 98.4968 95.4073C99.9848 97.5364 101.964 99.2756 104.267 100.478C106.569 101.68 109.128 102.309 111.725 102.313C114.201 102.316 116.644 101.749 118.864 100.654C121.085 99.5602 123.023 97.9689 124.529 96.004Z" fill="#28B0E4"/>
<path d="M113.12 91.2992C112.685 94.0937 111.538 96.7291 109.789 98.9524C108.041 101.176 105.751 102.912 103.138 103.995C100.764 104.982 98.1898 105.393 95.6265 105.194C93.0632 104.994 90.5835 104.191 88.3906 102.849C86.1977 101.506 84.354 99.6638 83.0105 97.4717C81.6669 95.2797 80.8618 92.8005 80.661 90.2373C80.4348 93.0189 80.9276 95.812 82.0921 98.3482C83.2566 100.884 85.0537 103.079 87.3107 104.72C89.5677 106.361 92.2089 107.395 94.9805 107.721C97.7522 108.047 100.561 107.656 103.138 106.583C106.121 105.303 108.66 103.17 110.436 100.452C112.212 97.7347 113.146 94.5532 113.12 91.3069V91.2992Z" fill="#E0B23A"/>
<path d="M111.904 82.6499C111.524 85.0902 110.525 87.3924 109.001 89.3357C107.477 91.2791 105.479 92.7986 103.2 93.7487C101.123 94.6102 98.8718 94.9684 96.6302 94.7942C94.3886 94.6199 92.2199 93.9181 90.3011 92.746C88.3824 91.5739 86.7681 89.9648 85.5897 88.0499C84.4114 86.135 83.7025 83.9686 83.5209 81.7275C83.331 84.1598 83.7682 86.6001 84.7908 88.8151C85.8133 91.0301 87.387 92.9458 89.3613 94.3789C91.3357 95.812 93.6447 96.7147 96.0675 97.0006C98.4903 97.2865 100.946 96.9461 103.2 96.0119C105.806 94.8909 108.023 93.0259 109.574 90.6504C111.125 88.2749 111.941 85.4945 111.919 82.6576L111.904 82.6499Z" fill="#E0B23A"/>
<path d="M110.175 107.413C108.602 109.129 106.676 110.485 104.53 111.387C102.384 112.29 100.069 112.718 97.7419 112.642C95.4151 112.566 93.1321 111.988 91.0495 110.947C88.9669 109.907 87.1339 108.428 85.676 106.613C84.2181 104.798 83.1697 102.689 82.6028 100.431C82.0359 98.1735 81.9638 95.8196 82.3914 93.5311C82.8191 91.2427 83.7364 89.0737 85.0805 87.1729C86.4246 85.272 88.1637 83.6841 90.1787 82.5181C88.906 83.9209 87.8859 85.5336 87.1637 87.2846C85.8701 90.4036 85.5868 93.8496 86.354 97.1379C87.1211 100.426 88.8999 103.391 91.4401 105.616C93.9804 107.84 97.1542 109.212 100.515 109.539C103.876 109.865 107.254 109.13 110.175 107.436V107.413Z" fill="#6BCDE8"/>
<path d="M73.1196 43.7339C80.0952 45.9583 83.9239 51.1357 83.0249 60.6844C75.0469 57.8581 71.7452 52.2079 73.1196 43.7339Z" fill="#424242"/>
<path d="M76.5956 52.8059C77.2197 52.5136 77.4196 51.6231 77.0421 50.8168C76.6646 50.0104 75.8525 49.5937 75.2284 49.8859C74.6043 50.1781 74.4043 51.0687 74.7819 51.8751C75.1594 52.6814 75.9715 53.0981 76.5956 52.8059Z" fill="white"/>
<path d="M111.144 60.7621C109.439 53.6239 111.919 47.6792 120.538 43.5171C122.238 51.8102 119.106 57.5586 111.144 60.7621Z" fill="#424242"/>
<path d="M117.283 55.1156C117.778 54.3756 117.715 53.4651 117.142 53.0818C116.57 52.6985 115.704 52.9876 115.209 53.7276C114.713 54.4675 114.776 55.3781 115.349 55.7614C115.922 56.1447 116.788 55.8555 117.283 55.1156Z" fill="white"/>
</svg>
